<svg width="152" height="75" viewBox="0 0 152 75" fill="none" xmlns="http://www.w3.org/2000/svg">
<path d="M24.5509 35.4449C24.6713 35.7527 24.7516 36.0538 24.7918 36.3482C24.8453 36.6292 24.8721 36.8835 24.8721 37.111C24.8721 37.4991 24.7985 37.8069 24.6513 38.0344C24.504 38.2619 24.2699 38.4426 23.9487 38.5764C23.6409 38.7102 23.2327 38.7972 22.7242 38.8373C22.229 38.8775 21.6268 38.8976 20.9175 38.8976C20.2618 38.8976 19.606 38.8842 18.9503 38.8574C18.3079 38.8307 17.6455 38.7972 16.963 38.7571C16.2805 38.7169 15.6047 38.6834 14.9355 38.6567C14.2798 38.6165 13.6107 38.5965 12.9282 38.5965C12.0449 38.5965 11.1751 38.6433 10.3186 38.737C9.46209 38.8173 8.60561 38.9779 7.74913 39.2188C7.74913 38.4024 7.88965 37.7534 8.17068 37.2716C8.46509 36.7898 8.87326 36.4218 9.39518 36.1675C9.9171 35.9133 10.5461 35.746 11.2821 35.6657C12.0315 35.5854 12.8613 35.5452 13.7713 35.5452C14.6947 35.5452 15.6983 35.572 16.7823 35.6255C17.8797 35.6791 19.0574 35.7058 20.3153 35.7058C21.0781 35.7058 21.8209 35.6925 22.5435 35.6657C23.2795 35.6255 23.9487 35.5519 24.5509 35.4449ZM33.9053 43.635C35.3506 43.1264 36.7424 42.5175 38.0806 41.8083C39.4323 41.0856 40.63 40.2425 41.6738 39.279C42.7177 38.3154 43.5474 37.2181 44.163 35.9869C44.792 34.7557 45.1064 33.3706 45.1064 31.8316C45.1064 30.8279 44.9191 29.9246 44.5444 29.1216C44.183 28.3187 43.6879 27.6429 43.0589 27.0942C42.4299 26.5321 41.6939 26.1039 40.8508 25.8095C40.0077 25.515 39.1044 25.3678 38.1408 25.3678C37.1505 25.3678 36.3074 25.4816 35.6115 25.7091C34.929 25.9232 34.3737 26.2176 33.9454 26.5923C33.5172 26.9537 33.2027 27.3819 33.002 27.8771C32.8146 28.3588 32.7209 28.8674 32.7209 29.4027C32.7209 30.1789 32.8681 30.9283 33.1625 31.6509C33.457 32.3736 33.9253 32.9959 34.5677 33.5178L34.4874 33.7788C33.6845 34.1668 32.9083 34.3609 32.1589 34.3609C31.6503 34.3609 31.1752 34.2873 30.7336 34.1401C30.3054 33.9929 29.9307 33.7721 29.6095 33.4776C29.2883 33.1832 29.034 32.8219 28.8467 32.3937C28.6727 31.952 28.5857 31.4502 28.5857 30.8881C28.5857 30.0718 28.7731 29.3157 29.1478 28.6198C29.5359 27.9105 30.0511 27.2615 30.6935 26.6726C31.3492 26.0838 32.1053 25.5619 32.9618 25.1069C33.8183 24.6385 34.7082 24.2437 35.6316 23.9225C36.5684 23.6013 37.5119 23.3605 38.462 23.1999C39.4256 23.0259 40.3356 22.9389 41.1921 22.9389C42.3697 22.9389 43.5005 23.0995 44.5845 23.4207C45.6685 23.7285 46.6254 24.1969 47.4551 24.8258C48.2848 25.4414 48.9405 26.2109 49.4223 27.1343C49.9175 28.0443 50.165 29.1016 50.165 30.306C50.165 31.3632 50.0044 32.3669 49.6833 33.3171C49.3755 34.2538 48.9539 35.1371 48.4186 35.9668C47.8833 36.7831 47.2543 37.5459 46.5317 38.2552C45.809 38.9645 45.0395 39.6202 44.2232 40.2224C43.4069 40.8113 42.5571 41.3533 41.6738 41.8484C40.804 42.3302 39.9542 42.7584 39.1245 43.1331L39.1646 43.2536C39.2315 43.2402 39.2984 43.2335 39.3653 43.2335C39.4456 43.2335 39.5192 43.2335 39.5862 43.2335H40.0478C41.5601 43.2335 43.0188 43.461 44.4239 43.916C45.8291 44.3576 47.067 45 48.1376 45.8431C49.2216 46.6862 50.0847 47.7233 50.7271 48.9545C51.3828 50.1723 51.7107 51.5574 51.7107 53.1098C51.7107 54.5417 51.4832 55.8867 51.0282 57.1446C50.5866 58.4026 49.971 59.5535 49.1814 60.5973C48.3919 61.6412 47.4618 62.5713 46.3912 63.3876C45.3206 64.2173 44.163 64.9132 42.9184 65.4753C41.6738 66.0373 40.369 66.4656 39.004 66.76C37.6524 67.0678 36.2941 67.2217 34.929 67.2217C34.3536 67.2217 33.7179 67.1815 33.022 67.1012C32.3261 67.0343 31.6302 66.9139 30.9344 66.7399C30.2518 66.5659 29.5827 66.3384 28.927 66.0574C28.2846 65.7764 27.7092 65.4284 27.2006 65.0136C26.7055 64.6121 26.3107 64.137 26.0163 63.5883C25.7085 63.053 25.5546 62.4307 25.5546 61.7215C25.5546 61.3468 25.6349 60.9787 25.7955 60.6174C25.9561 60.2561 26.1769 59.9282 26.4579 59.6338C26.7389 59.3394 27.0735 59.0985 27.4616 58.9111C27.8497 58.7372 28.2712 58.6502 28.7262 58.6502C29.1679 59.6672 29.6965 60.5371 30.3121 61.2598C30.941 61.9958 31.6236 62.598 32.3596 63.0664C33.0956 63.5482 33.8718 63.9028 34.6881 64.1303C35.5045 64.3578 36.3275 64.4716 37.1572 64.4716C38.3215 64.4716 39.459 64.2508 40.5698 63.8091C41.6939 63.3675 42.6909 62.7318 43.5608 61.9021C44.4306 61.0724 45.1265 60.062 45.6484 58.871C46.1837 57.6799 46.4514 56.335 46.4514 54.8362C46.4514 53.257 46.1704 51.8585 45.6083 50.6407C45.0462 49.4095 44.2901 48.3791 43.3399 47.5494C42.4032 46.7063 41.3058 46.0706 40.0478 45.6424C38.8033 45.2007 37.4918 44.9799 36.1134 44.9799H35.4911C35.2368 44.9799 35.0093 44.9866 34.8086 45C34.6212 45.0134 34.387 45.0335 34.106 45.0602L33.9053 43.635ZM70.821 22.9791C72.6811 22.9791 74.4008 23.2869 75.9799 23.9025C77.5724 24.518 78.9375 25.4281 80.075 26.6325C81.2259 27.8369 82.1225 29.3224 82.7649 31.0889C83.4206 32.842 83.7485 34.8627 83.7485 37.1512C83.7485 38.824 83.5745 40.3964 83.2266 41.8685C82.8786 43.3272 82.3902 44.6721 81.7612 45.9033C81.1456 47.1211 80.3962 48.2118 79.5129 49.1753C78.6297 50.1389 77.6461 50.9552 76.5621 51.6243C75.4915 52.2935 74.3406 52.802 73.1094 53.15C71.8782 53.4979 70.5935 53.6719 69.2552 53.6719C67.4218 53.6719 65.7088 53.3641 64.1163 52.7485C62.5238 52.1463 61.1387 51.2496 59.961 50.0586C58.7968 48.8542 57.8801 47.362 57.2109 45.5821C56.5418 43.8023 56.2072 41.748 56.2072 39.4195C56.2072 37.7734 56.3812 36.2278 56.7292 34.7824C57.0771 33.3237 57.5656 31.9855 58.1946 30.7677C58.8369 29.5499 59.5997 28.4592 60.483 27.4957C61.3796 26.5321 62.3699 25.7158 63.4539 25.0467C64.5379 24.3775 65.7021 23.869 66.9467 23.5211C68.1913 23.1597 69.4827 22.9791 70.821 22.9791ZM70.6403 51.0221C71.925 51.0221 73.0692 50.7344 74.0729 50.159C75.09 49.5701 75.9465 48.7605 76.6424 47.73C77.3516 46.6862 77.8869 45.4483 78.2483 44.0164C78.623 42.5711 78.8103 40.9852 78.8103 39.2589C78.8103 38.0411 78.7033 36.8634 78.4891 35.7259C78.2884 34.575 77.994 33.4977 77.6059 32.494C77.2178 31.477 76.7427 30.5536 76.1807 29.7239C75.632 28.8941 75.003 28.1782 74.2937 27.576C73.5845 26.9737 72.8083 26.5054 71.9652 26.1708C71.1221 25.8362 70.2187 25.6689 69.2552 25.6689C68.1043 25.6689 67.027 25.9366 66.0233 26.4719C65.033 26.9938 64.1698 27.7633 63.4338 28.7804C62.7112 29.7841 62.1424 31.0153 61.7275 32.474C61.3127 33.9193 61.1053 35.5653 61.1053 37.4121C61.1053 39.192 61.3261 40.9049 61.7677 42.551C62.2093 44.1837 62.845 45.629 63.6747 46.8869C64.5044 48.1449 65.5014 49.1486 66.6657 49.898C67.8434 50.6474 69.1682 51.0221 70.6403 51.0221ZM99.3257 31.8517C97.8269 31.8517 96.4284 31.6242 95.1303 31.1692C93.8322 30.7142 92.7014 30.0116 91.7378 29.0614C90.7877 28.1113 90.0383 26.9001 89.4896 25.4281C88.9409 23.9426 88.6666 22.1761 88.6666 20.1286C88.6666 18.1346 88.9141 16.2476 89.4093 14.4678C89.9044 12.6879 90.6405 11.1288 91.6174 9.79058C92.5943 8.45233 93.8121 7.39511 95.2708 6.61892C96.7295 5.82936 98.4157 5.43457 100.329 5.43457C101.842 5.43457 103.233 5.66207 104.505 6.11708C105.776 6.5587 106.867 7.26129 107.777 8.22483C108.7 9.17499 109.416 10.3861 109.925 11.8582C110.447 13.3303 110.708 15.0901 110.708 17.1376C110.708 19.1316 110.48 21.0252 110.025 22.8185C109.57 24.5983 108.874 26.1574 107.937 27.4957C107.001 28.8339 105.816 29.8978 104.384 30.6874C102.952 31.4636 101.266 31.8517 99.3257 31.8517ZM99.5867 29.6436C100.751 29.6436 101.755 29.3625 102.598 28.8005C103.454 28.2384 104.164 27.4488 104.726 26.4317C105.288 25.4147 105.703 24.2036 105.97 22.7984C106.251 21.3932 106.392 19.8475 106.392 18.1614C106.392 16.2209 106.211 14.5815 105.85 13.2433C105.502 11.905 105.02 10.821 104.404 9.99132C103.802 9.14822 103.1 8.53932 102.297 8.16461C101.494 7.78989 100.644 7.60254 99.7473 7.60254C98.5964 7.60254 97.5994 7.88357 96.7563 8.44564C95.9132 9.0077 95.2106 9.79727 94.6485 10.8143C94.0999 11.818 93.685 13.0292 93.404 14.4477C93.1363 15.8529 93.0025 17.3985 93.0025 19.0847C93.0025 21.0252 93.1765 22.6646 93.5244 24.0028C93.8857 25.3411 94.3675 26.4317 94.9697 27.2748C95.5719 28.1046 96.2678 28.7068 97.0574 29.0815C97.8603 29.4562 98.7034 29.6436 99.5867 29.6436ZM100.651 55.6793C100.048 55.4651 99.6202 55.2109 99.3659 54.9164C99.1116 54.6354 98.9845 54.2473 98.9845 53.7522C98.9845 53.257 99.1518 52.7016 99.4863 52.086C100.142 50.8549 101.313 48.9144 102.999 46.2646C104.685 43.6015 106.86 40.3027 109.523 36.3683C112.2 32.4338 115.358 27.8971 118.998 22.7582C122.638 17.606 126.74 11.9184 131.303 5.69553C131.665 5.21376 131.972 4.82567 132.227 4.53125C132.494 4.22345 132.735 3.98926 132.949 3.82867C133.163 3.6547 133.357 3.54094 133.531 3.48741C133.705 3.4205 133.886 3.38704 134.073 3.38704C134.836 3.38704 135.432 3.82867 135.86 4.71191C132.755 8.75344 129.744 12.7883 126.827 16.8164C123.909 20.8445 121.012 24.9463 118.135 29.1216C115.271 33.2836 112.394 37.5593 109.503 41.9488C106.626 46.3383 103.675 50.9151 100.651 55.6793ZM132.187 53.5715C130.688 53.5715 129.289 53.344 127.991 52.889C126.693 52.434 125.562 51.7314 124.599 50.7813C123.648 49.8311 122.899 48.62 122.35 47.1479C121.802 45.6624 121.527 43.8959 121.527 41.8484C121.527 39.8544 121.775 37.9675 122.27 36.1876C122.765 34.4077 123.501 32.8487 124.478 31.5104C125.455 30.1722 126.673 29.1149 128.132 28.3388C129.59 27.5492 131.277 27.1544 133.19 27.1544C134.702 27.1544 136.094 27.3819 137.366 27.8369C138.637 28.2785 139.728 28.9811 140.638 29.9447C141.561 30.8948 142.277 32.1059 142.785 33.578C143.307 35.0501 143.568 36.8099 143.568 38.8574C143.568 40.8514 143.341 42.745 142.886 44.5383C142.431 46.3182 141.735 47.8772 140.798 49.2155C139.861 50.5537 138.677 51.6177 137.245 52.4072C135.813 53.1834 134.127 53.5715 132.187 53.5715ZM132.447 51.3634C133.612 51.3634 134.615 51.0824 135.459 50.5203C136.315 49.9582 137.024 49.1687 137.586 48.1516C138.148 47.1345 138.563 45.9234 138.831 44.5182C139.112 43.1131 139.252 41.5674 139.252 39.8812C139.252 37.9407 139.072 36.3014 138.711 34.9631C138.363 33.6249 137.881 32.5409 137.265 31.7112C136.663 30.8681 135.96 30.2592 135.157 29.8844C134.354 29.5097 133.505 29.3224 132.608 29.3224C131.457 29.3224 130.46 29.6034 129.617 30.1655C128.774 30.7275 128.071 31.5171 127.509 32.5342C126.961 33.5379 126.546 34.749 126.265 36.1675C125.997 37.5727 125.863 39.1184 125.863 40.8046C125.863 42.745 126.037 44.3844 126.385 45.7227C126.747 47.0609 127.228 48.1516 127.831 48.9947C128.433 49.8244 129.129 50.4266 129.918 50.8013C130.721 51.176 131.564 51.3634 132.447 51.3634Z" fill="#FF9138"/>
</svg>
