<svg width="126" height="62" viewBox="0 0 126 62" fill="none" xmlns="http://www.w3.org/2000/svg">
<path d="M16.6958 29.5713C16.8042 29.8483 16.8765 30.1193 16.9126 30.3843C16.9608 30.6372 16.9849 30.866 16.9849 31.0708C16.9849 31.4201 16.9186 31.6971 16.7861 31.9019C16.6536 32.1066 16.4429 32.2692 16.1538 32.3896C15.8768 32.5101 15.5094 32.5884 15.0518 32.6245C14.6061 32.6606 14.0641 32.6787 13.4258 32.6787C12.8356 32.6787 12.2454 32.6667 11.6553 32.6426C11.0771 32.6185 10.481 32.5884 9.8667 32.5522C9.25244 32.5161 8.64421 32.486 8.04199 32.4619C7.45182 32.4258 6.84961 32.4077 6.23535 32.4077C5.44043 32.4077 4.65755 32.4499 3.88672 32.5342C3.11589 32.6064 2.34505 32.751 1.57422 32.9678C1.57422 32.2331 1.70068 31.6489 1.95361 31.2153C2.21859 30.7817 2.58594 30.4505 3.05566 30.2217C3.52539 29.9928 4.09147 29.8423 4.75391 29.77C5.42839 29.6978 6.17513 29.6616 6.99414 29.6616C7.8252 29.6616 8.72852 29.6857 9.7041 29.7339C10.6917 29.7821 11.7516 29.8062 12.8838 29.8062C13.5703 29.8062 14.2388 29.7941 14.8892 29.77C15.5516 29.7339 16.1538 29.6676 16.6958 29.5713ZM25.1147 36.9424C26.4155 36.4847 27.6681 35.9367 28.8726 35.2983C30.089 34.6479 31.167 33.8892 32.1064 33.022C33.0459 32.1548 33.7926 31.1672 34.3467 30.0591C34.9128 28.951 35.1958 27.7044 35.1958 26.3193C35.1958 25.416 35.0272 24.603 34.6899 23.8804C34.3647 23.1577 33.9191 22.5495 33.353 22.0557C32.7869 21.5498 32.1245 21.1644 31.3657 20.8994C30.6069 20.6344 29.7939 20.502 28.9268 20.502C28.0355 20.502 27.2767 20.6043 26.6504 20.8091C26.0361 21.0018 25.5363 21.2668 25.1509 21.604C24.7655 21.9292 24.4824 22.3146 24.3018 22.7603C24.1331 23.1938 24.0488 23.6515 24.0488 24.1333C24.0488 24.8319 24.1813 25.5063 24.4463 26.1567C24.7113 26.8071 25.1328 27.3672 25.7109 27.8369L25.6387 28.0718C24.916 28.4211 24.2174 28.5957 23.543 28.5957C23.0853 28.5957 22.6577 28.5295 22.2603 28.397C21.8748 28.2645 21.5376 28.0658 21.2485 27.8008C20.9595 27.5358 20.7306 27.2106 20.562 26.8252C20.4054 26.4277 20.3271 25.9761 20.3271 25.4702C20.3271 24.7355 20.4958 24.055 20.833 23.4287C21.1823 22.7904 21.646 22.2062 22.2241 21.6763C22.8143 21.1463 23.4948 20.6766 24.2656 20.2671C25.0365 19.8455 25.8374 19.4902 26.6685 19.2012C27.5116 18.9121 28.3607 18.6953 29.2158 18.5508C30.083 18.3942 30.902 18.3159 31.6729 18.3159C32.7327 18.3159 33.7505 18.4604 34.7261 18.7495C35.7017 19.0265 36.5628 19.4481 37.3096 20.0142C38.0563 20.5682 38.6465 21.2607 39.0801 22.0918C39.5257 22.9108 39.7485 23.8623 39.7485 24.9463C39.7485 25.8978 39.604 26.8011 39.3149 27.6562C39.0379 28.4993 38.6585 29.2943 38.1768 30.041C37.695 30.7757 37.1289 31.4622 36.4785 32.1006C35.8281 32.7389 35.1356 33.3291 34.4009 33.8711C33.6662 34.401 32.9014 34.8888 32.1064 35.3345C31.3236 35.7681 30.5588 36.1535 29.812 36.4907L29.8481 36.5991C29.9084 36.5871 29.9686 36.5811 30.0288 36.5811C30.1011 36.5811 30.1673 36.5811 30.2275 36.5811H30.6431C32.0041 36.5811 33.3169 36.7858 34.5815 37.1953C35.8462 37.5928 36.9603 38.1709 37.9238 38.9297C38.8994 39.6885 39.6763 40.6219 40.2544 41.73C40.8446 42.826 41.1396 44.0726 41.1396 45.4697C41.1396 46.7585 40.9349 47.9689 40.5254 49.1011C40.1279 50.2332 39.5739 51.269 38.8633 52.2085C38.1527 53.1479 37.3156 53.985 36.3521 54.7197C35.3885 55.4665 34.3467 56.0928 33.2266 56.5986C32.1064 57.1045 30.9321 57.4899 29.7036 57.7549C28.4871 58.0319 27.2646 58.1704 26.0361 58.1704C25.5182 58.1704 24.9461 58.1343 24.3198 58.062C23.6935 58.0018 23.0672 57.8934 22.4409 57.7368C21.8267 57.5802 21.2244 57.3755 20.6343 57.1226C20.0562 56.8696 19.5382 56.5565 19.0806 56.1831C18.6349 55.8218 18.2796 55.3942 18.0146 54.9004C17.7376 54.4186 17.5991 53.8586 17.5991 53.2202C17.5991 52.883 17.6714 52.5518 17.8159 52.2266C17.9604 51.9014 18.1592 51.6063 18.4121 51.3413C18.665 51.0763 18.9661 50.8595 19.3154 50.6909C19.6647 50.5343 20.0441 50.4561 20.4536 50.4561C20.8511 51.3714 21.3268 52.1543 21.8809 52.8047C22.4469 53.4671 23.0612 54.0091 23.7236 54.4307C24.3861 54.8643 25.0846 55.1834 25.8193 55.3882C26.554 55.5929 27.2948 55.6953 28.0415 55.6953C29.0894 55.6953 30.1131 55.4966 31.1128 55.0991C32.1245 54.7017 33.0218 54.1296 33.8047 53.3828C34.5876 52.6361 35.2139 51.7267 35.6836 50.6548C36.1654 49.5828 36.4062 48.3724 36.4062 47.0234C36.4062 45.6022 36.1533 44.3436 35.6475 43.2476C35.1416 42.1395 34.4611 41.2121 33.606 40.4653C32.7629 39.7065 31.7752 39.1344 30.6431 38.749C29.5229 38.3516 28.3426 38.1528 27.1021 38.1528H26.542C26.3132 38.1528 26.1084 38.1589 25.9277 38.1709C25.7591 38.1829 25.5483 38.201 25.2954 38.2251L25.1147 36.9424ZM58.3389 18.3521C60.013 18.3521 61.5607 18.6291 62.9819 19.1831C64.4152 19.7371 65.6437 20.5562 66.6675 21.6401C67.7033 22.7241 68.5103 24.061 69.0884 25.6509C69.6785 27.2287 69.9736 29.0474 69.9736 31.1069C69.9736 32.6125 69.8171 34.0277 69.5039 35.3525C69.1908 36.6654 68.7511 37.8758 68.1851 38.9839C67.631 40.0799 66.9565 41.0615 66.1616 41.9287C65.3667 42.7959 64.4814 43.5306 63.5059 44.1328C62.5423 44.735 61.5065 45.1927 60.3984 45.5059C59.2904 45.819 58.1341 45.9756 56.9297 45.9756C55.2796 45.9756 53.738 45.6986 52.3047 45.1445C50.8714 44.6025 49.6248 43.7956 48.5649 42.7236C47.5171 41.6396 46.6921 40.2967 46.0898 38.6948C45.4876 37.0929 45.1865 35.2441 45.1865 33.1484C45.1865 31.667 45.3431 30.2759 45.6562 28.9751C45.9694 27.6623 46.409 26.4578 46.9751 25.3618C47.5532 24.2658 48.2397 23.2842 49.0347 22.417C49.8416 21.5498 50.7329 20.8151 51.7085 20.2129C52.6841 19.6107 53.7319 19.153 54.8521 18.8398C55.9722 18.5146 57.1344 18.3521 58.3389 18.3521ZM58.1763 43.5908C59.3325 43.5908 60.3623 43.3319 61.2656 42.814C62.181 42.284 62.9518 41.5553 63.5781 40.6279C64.2165 39.6885 64.6982 38.5744 65.0234 37.2856C65.3607 35.9849 65.5293 34.5576 65.5293 33.0039C65.5293 31.9079 65.4329 30.848 65.2402 29.8242C65.0596 28.7884 64.7946 27.8188 64.4453 26.9155C64.096 26.0002 63.6685 25.1691 63.1626 24.4224C62.6688 23.6756 62.1027 23.0312 61.4644 22.4893C60.826 21.9473 60.1274 21.5257 59.3687 21.2246C58.6099 20.9235 57.7969 20.7729 56.9297 20.7729C55.8939 20.7729 54.9243 21.0138 54.021 21.4956C53.1297 21.9653 52.3529 22.6579 51.6904 23.5732C51.04 24.4766 50.5282 25.5846 50.1548 26.8975C49.7814 28.1982 49.5947 29.6797 49.5947 31.3418C49.5947 32.9437 49.7935 34.4854 50.1909 35.9668C50.5884 37.4362 51.1605 38.737 51.9072 39.8691C52.654 41.0013 53.5513 41.9046 54.5991 42.5791C55.659 43.2536 56.8514 43.5908 58.1763 43.5908ZM83.9932 26.3374C82.6442 26.3374 81.3856 26.1326 80.2173 25.7231C79.049 25.3136 78.0312 24.6813 77.1641 23.8262C76.3089 22.971 75.6344 21.881 75.1406 20.5562C74.6468 19.2192 74.3999 17.6294 74.3999 15.7866C74.3999 13.992 74.6227 12.2938 75.0684 10.6919C75.514 9.09001 76.1764 7.68685 77.0557 6.48242C77.9349 5.27799 79.0309 4.3265 80.3438 3.62793C81.6566 2.91732 83.1742 2.56201 84.8965 2.56201C86.2575 2.56201 87.5101 2.76676 88.6543 3.17627C89.7985 3.57373 90.7801 4.20605 91.5991 5.07324C92.4302 5.92839 93.0745 7.01839 93.5322 8.34326C94.002 9.66813 94.2368 11.252 94.2368 13.0947C94.2368 14.8893 94.0321 16.5936 93.6226 18.2075C93.2131 19.8094 92.5868 21.2126 91.7437 22.417C90.9006 23.6214 89.8346 24.5789 88.5459 25.2896C87.2572 25.9881 85.7396 26.3374 83.9932 26.3374ZM84.228 24.3501C85.2759 24.3501 86.1792 24.0972 86.938 23.5913C87.7088 23.0854 88.3472 22.3748 88.853 21.4595C89.3589 20.5441 89.7323 19.4541 89.9731 18.1895C90.2261 16.9248 90.3525 15.5337 90.3525 14.0161C90.3525 12.2697 90.1899 10.7943 89.8647 9.58984C89.5516 8.38542 89.118 7.40983 88.564 6.66309C88.022 5.9043 87.3896 5.35628 86.667 5.01904C85.9443 4.6818 85.1795 4.51318 84.3726 4.51318C83.3368 4.51318 82.4395 4.76611 81.6807 5.27197C80.9219 5.77783 80.2896 6.48844 79.7837 7.40381C79.2899 8.30713 78.9165 9.39714 78.6636 10.6738C78.4227 11.9385 78.3022 13.3296 78.3022 14.8472C78.3022 16.5936 78.4588 18.069 78.772 19.2734C79.0972 20.4779 79.5308 21.4595 80.0728 22.2183C80.6147 22.965 81.241 23.507 81.9517 23.8442C82.6743 24.1815 83.4331 24.3501 84.228 24.3501ZM85.1855 47.7822C84.6436 47.5895 84.2581 47.3607 84.0293 47.0957C83.8005 46.8428 83.686 46.4935 83.686 46.0479C83.686 45.6022 83.8366 45.1024 84.1377 44.5483C84.7279 43.4403 85.7817 41.6938 87.2993 39.3091C88.8169 36.9123 90.7741 33.9434 93.1709 30.4023C95.5798 26.8613 98.4222 22.7783 101.698 18.1533C104.974 13.5163 108.666 8.39746 112.773 2.79688C113.098 2.36328 113.375 2.014 113.604 1.74902C113.845 1.47201 114.062 1.26123 114.254 1.1167C114.447 0.960124 114.622 0.857747 114.778 0.80957C114.935 0.749349 115.097 0.719238 115.266 0.719238C115.953 0.719238 116.489 1.1167 116.874 1.91162C114.08 5.54899 111.37 9.18034 108.744 12.8057C106.118 16.431 103.511 20.1226 100.921 23.8804C98.3439 27.6261 95.7544 31.4743 93.1528 35.4248C90.5633 39.3753 87.9076 43.4945 85.1855 47.7822ZM113.568 45.8853C112.219 45.8853 110.96 45.6805 109.792 45.271C108.624 44.8615 107.606 44.2292 106.739 43.374C105.884 42.5189 105.209 41.4289 104.715 40.104C104.222 38.7671 103.975 37.1772 103.975 35.3345C103.975 33.5399 104.197 31.8416 104.643 30.2397C105.089 28.6379 105.751 27.2347 106.63 26.0303C107.51 24.8258 108.606 23.8743 109.918 23.1758C111.231 22.4652 112.749 22.1099 114.471 22.1099C115.832 22.1099 117.085 22.3146 118.229 22.7241C119.373 23.1216 120.355 23.7539 121.174 24.6211C122.005 25.4762 122.649 26.5662 123.107 27.8911C123.577 29.216 123.812 30.7998 123.812 32.6426C123.812 34.4372 123.607 36.1414 123.197 37.7554C122.788 39.3573 122.161 40.7604 121.318 41.9648C120.475 43.1693 119.409 44.1268 118.121 44.8374C116.832 45.536 115.314 45.8853 113.568 45.8853ZM113.803 43.8979C114.851 43.8979 115.754 43.645 116.513 43.1392C117.284 42.6333 117.922 41.9227 118.428 41.0073C118.934 40.092 119.307 39.002 119.548 37.7373C119.801 36.4727 119.927 35.0815 119.927 33.564C119.927 31.8175 119.765 30.3421 119.439 29.1377C119.126 27.9333 118.693 26.9577 118.139 26.2109C117.597 25.4521 116.964 24.9041 116.242 24.5669C115.519 24.2297 114.754 24.061 113.947 24.061C112.911 24.061 112.014 24.314 111.255 24.8198C110.497 25.3257 109.864 26.0363 109.358 26.9517C108.865 27.855 108.491 28.945 108.238 30.2217C107.997 31.4863 107.877 32.8774 107.877 34.395C107.877 36.1414 108.034 37.6169 108.347 38.8213C108.672 40.0257 109.105 41.0073 109.647 41.7661C110.189 42.5129 110.816 43.0549 111.526 43.3921C112.249 43.7293 113.008 43.8979 113.803 43.8979Z" fill="#FFA55C"/>
</svg>
