<svg width="14" height="16" viewBox="0 0 14 16" fill="none" xmlns="http://www.w3.org/2000/svg">
<path fill-rule="evenodd" clip-rule="evenodd" d="M6.99984 0.335938C7.55212 0.335938 7.99984 0.783653 7.99984 1.33594L7.99984 14.6693C7.99984 15.2216 7.55212 15.6693 6.99984 15.6693C6.44755 15.6693 5.99984 15.2216 5.99984 14.6693L5.99984 1.33594C5.99984 0.783653 6.44755 0.335938 6.99984 0.335938ZM12.3332 4.33594C12.8855 4.33594 13.3332 4.78365 13.3332 5.33594V10.6693C13.3332 11.2216 12.8855 11.6693 12.3332 11.6693C11.7809 11.6693 11.3332 11.2216 11.3332 10.6693V5.33594C11.3332 4.78365 11.7809 4.33594 12.3332 4.33594ZM2.6665 5.33594C2.6665 4.78365 2.21879 4.33594 1.6665 4.33594C1.11422 4.33594 0.666505 4.78365 0.666505 5.33594L0.666504 10.6693C0.666504 11.2216 1.11422 11.6693 1.6665 11.6693C2.21879 11.6693 2.6665 11.2216 2.6665 10.6693L2.6665 5.33594Z" fill="#FFF4EB"/>
</svg>
