<svg width="32" height="23" viewBox="0 0 32 23" fill="none" xmlns="http://www.w3.org/2000/svg">
<path d="M31.3299 4.24359C31.1488 3.58295 30.7959 2.98484 30.3087 2.51284C29.8079 2.02633 29.194 1.67832 28.525 1.50165C26.0213 0.82707 15.9907 0.82707 15.9907 0.82707C11.809 0.778436 7.62837 0.992342 3.47236 1.46758C2.80337 1.6573 2.19061 2.01309 1.6886 2.5033C1.19533 2.98846 0.838043 3.58672 0.651402 4.24222C0.203053 6.71125 -0.0147857 9.21824 0.0008228 11.7294C-0.015175 14.2383 0.202129 16.7445 0.651402 19.2166C0.834044 19.8693 1.19 20.4649 1.6846 20.9459C2.1792 21.427 2.79511 21.7745 3.47236 21.9585C6.00935 22.6317 15.9907 22.6317 15.9907 22.6317C20.1777 22.6804 24.3636 22.4665 28.525 21.9912C29.194 21.8145 29.8079 21.4665 30.3087 20.98C30.802 20.499 31.1526 19.9007 31.3286 19.2493C31.7887 16.7812 32.0124 14.2732 31.9965 11.7607C32.0311 9.23767 31.8077 6.71782 31.3299 4.24222V4.24359ZM12.8018 16.3956V7.06456L21.1473 11.7308L12.8018 16.3956Z" fill="#DB9F6A"/>
</svg>
