<?xml version="1.0" encoding="UTF-8"?>
<!DOCTYPE svg PUBLIC "-//W3C//DTD SVG 1.1//EN" "http://www.w3.org/Graphics/SVG/1.1/DTD/svg11.dtd">
<!-- Creator: CorelDRAW -->
<svg xmlns="http://www.w3.org/2000/svg" xml:space="preserve" width="118px" height="23px" style="shape-rendering:geometricPrecision; text-rendering:geometricPrecision; image-rendering:optimizeQuality; fill-rule:evenodd; clip-rule:evenodd"
viewBox="0 0 23.2075 4.51642"
 xmlns:xlink="http://www.w3.org/1999/xlink">
 <defs>
  <style type="text/css">
   <![CDATA[
    .fil0 {fill:#208229}
   ]]>
  </style>
 </defs>
 <g id="Layer_x0020_1">
  <metadata id="CorelCorpID_0Corel-Layer"/>
  <g id="ss_logo">
   <path id="_108538912" class="fil0" d="M11.4498 1.28356c-0.213162,-0.200754 -0.407627,-0.331076 -0.708842,-0.326373 -0.655409,0.0102558 -0.920361,0.553701 -0.920361,1.21823 0,0.583675 0.142505,1.40329 0.905856,1.40329 0.305238,0 0.498399,-0.141258 0.698869,-0.330453l0.705385 0.666289c-0.0711108,0.0891293 -0.149758,0.169079 -0.235317,0.240134 -0.322803,0.268068 -0.611326,0.36173 -1.15506,0.36173 -1.29592,0 -1.95382,-0.866929 -1.95382,-2.3113 0,-0.728503 0.222625,-1.31586 0.60362,-1.69856 0.692806,-0.696036 2.13718,-0.688953 2.75712,0.106298l-0.697453 0.670822 0 -0.000113324zm-10.3887 -0.0818766c0,-0.110831 0.0604584,-0.198147 0.171233,-0.261948 0.110831,-0.0604584 0.265292,-0.0906592 0.470125,-0.0906592 0.177975,0 0.392894,0.0369436 0.638014,0.110831 0.228348,0.0604584 0.490296,0.16789 0.785789,0.32575l0 -0.889877c-0.228348,-0.110831 -0.473468,-0.19809 -0.732017,-0.268635 -0.268635,-0.0604584 -0.517154,-0.0906592 -0.748845,-0.0906592 -0.49024,0 -0.886477,0.117517 -1.18537,0.349208 -0.308978,0.228348 -0.460039,0.52384 -0.460039,0.899963 0,0.355951 0.117517,0.644757 0.349208,0.863019 0.228348,0.225005 0.654786,0.44661 1.27937,0.661529 0.265292,0.0940023 0.426495,0.16789 0.483554,0.225005 0.0705442,0.0571153 0.104088,0.141032 0.104088,0.255206 0,0.130946 -0.0571153,0.225005 -0.164546,0.27872 -0.110831,0.0704875 -0.275377,0.104088 -0.49024,0.104088 -0.188061,0 -0.406323,-0.0402867 -0.658186,-0.117517 -0.218262,-0.08063 -0.493639,-0.225005 -0.832762,-0.426438l0 0.963708c0.214919,0.127603 0.456696,0.228348 0.728673,0.308978 0.238434,0.0704875 0.503725,0.107488 0.789132,0.107488 0.540612,0 0.963708,-0.114174 1.26594,-0.342522 0.308978,-0.231691 0.463439,-0.544012 0.463439,-0.943592 0,-0.24512 -0.0503725,-0.456696 -0.151118,-0.641357 -0.0940023,-0.177975 -0.235091,-0.32235 -0.429838,-0.439924 -0.20149,-0.117517 -0.496983,-0.248463 -0.896563,-0.389551l-0.191404 -0.0738873c-0.211576,-0.0839164 -0.355951,-0.157804 -0.436524,-0.224948 -0.100745,-0.0873162 -0.151118,-0.171289 -0.151118,-0.251863l0 -0.000113324zm4.3721 -0.356007c0.181318,0 0.396237,0.0369436 0.638014,0.110831 0.218262,0.0604584 0.483554,0.16789 0.789132,0.32235l0 -0.889877c-0.228348,-0.107431 -0.473468,-0.194747 -0.735416,-0.261892 -0.268635,-0.0638014 -0.517154,-0.0940023 -0.755531,-0.0940023 -0.486897,0 -0.883134,0.117517 -1.18537,0.349208 -0.305578,0.225005 -0.456696,0.52384 -0.456696,0.896563 0,0.362694 0.117517,0.6481 0.352551,0.866362 0.238434,0.228348 0.664872,0.44661 1.28611,0.661529 0.251863,0.0906592 0.413066,0.164546 0.476867,0.228348 0.0638014,0.0604584 0.0973453,0.144375 0.0973453,0.251863 0,0.127603 -0.0537156,0.221605 -0.161203,0.27872 -0.110831,0.0705442 -0.275377,0.104088 -0.486897,0.104088 -0.194747,0 -0.413009,-0.0369436 -0.661529,-0.114174 -0.221605,-0.0839731 -0.496983,-0.228348 -0.826075,-0.429838l0 0.960364c0.214919,0.127603 0.456696,0.235034 0.72533,0.308921 0.241777,0.0772303 0.503669,0.110831 0.789132,0.110831 0.537269,0 0.960364,-0.110831 1.27269,-0.342522 0.302235,-0.225005 0.453296,-0.540669 0.453296,-0.943592 0,-0.241777 -0.0503725,-0.453353 -0.147718,-0.641414 -0.100745,-0.177975 -0.241777,-0.325693 -0.429838,-0.439867 -0.19809,-0.117517 -0.496983,-0.24512 -0.89322,-0.389551l-0.194747 -0.0738873c-0.20149,-0.0805734 -0.349208,-0.157804 -0.439924,-0.228348 -0.0973453,-0.0839731 -0.144375,-0.16789 -0.144375,-0.251863 0,-0.104088 0.0537156,-0.191404 0.164546,-0.258549 0.114174,-0.0604584 0.272034,-0.0906592 0.473468,-0.0906592l5.6662e-005 5.6662e-005zm2.96512 3.48228c0.110831,-0.110831 0.16789,-0.241777 0.16789,-0.392894 0,-0.15786 -0.0537156,-0.292149 -0.161203,-0.396237 -0.107431,-0.107488 -0.238434,-0.161203 -0.402924,-0.161203 -0.151118,0 -0.285407,0.0570586 -0.399581,0.171233 -0.104088,0.100745 -0.154461,0.231691 -0.154461,0.386152 0,0.157804 0.0503725,0.285407 0.154461,0.392894 0.110831,0.104088 0.24512,0.161203 0.399581,0.161203 0.151118,0 0.285407,-0.0571153 0.396237,-0.161203l0 5.6662e-005zm8.60475 -4.26404l1.04383 -0.000113324 0.000169986 0.380032c0.761197,-0.685384 2.04743,-0.503102 2.26336,0.20574 0.763407,-1.06984 2.89707,-0.85673 2.89707,0.998668l0 2.8144 -1.05539 0 0 -2.74233c0,-1.02536 -1.51888,-0.949882 -1.51809,-0.0715641l0.00260645 2.81066 -1.03737 0.00657279 0 -2.65824c0,-1.10791 -1.55577,-1.13262 -1.55469,-0.00583619l0.00254979 2.66079 -1.044 0 0 -4.39873 -5.6662e-005 -5.6662e-005zm-2.60345 -0.0610816c0.642377,0 1.32158,0.314644 1.60155,0.917698 0.173272,0.373289 0.2458,0.845341 0.23815,1.38782 -0.0172819,1.2235 -0.425985,2.18239 -1.8316,2.19435 -0.730317,0.00617616 -1.26645,-0.294529 -1.55107,-0.794288 -0.194691,-0.341955 -0.250616,-0.538402 -0.279287,-0.990849 -0.0155254,-0.245856 -0.0147888,-0.764031 0.00917925,-1.00853 0.0121823,-0.124146 0.0300309,-0.239397 0.0528657,-0.346318 0.0898093,-0.419922 0.27991,-0.666062 0.484404,-0.868345 0.355611,-0.351871 0.789585,-0.491486 1.27569,-0.491543l0.000113324 0zm-0.800351 2.25679c0,0.636541 0.0896393,1.29688 0.804431,1.30277 0.714791,0.00594951 0.787319,-0.674675 0.787319,-1.31127 0,-0.632291 -0.0933223,-1.28118 -0.787319,-1.28118 -0.693996,0 -0.804431,0.6532 -0.804431,1.28968z"/>
  </g>
 </g>
</svg>
