<svg width="362" height="80" viewBox="0 0 362 80" fill="none" xmlns="http://www.w3.org/2000/svg">
<path d="M39.9999 32C39.9999 16.9151 39.9999 9.37258 44.6862 4.68629C49.3725 0 56.915 0 71.9999 0H304.82C305.916 0 306.463 0 306.926 0.0268073C315.034 0.496736 321.503 6.96637 321.973 15.0742C322 15.5367 322 16.0843 322 17.1794C322 17.8645 322 18.207 322.013 18.5258C322.23 23.9812 325.215 28.9491 329.929 31.7031C330.204 31.8641 330.507 32.025 331.112 32.3467L335.185 34.5132C338.362 36.2035 339.951 37.0486 340.525 38.1426C341.135 39.3058 341.135 40.6942 340.525 41.8574C339.951 42.9514 338.362 43.7965 335.185 45.4868L331.112 47.6533C330.507 47.975 330.204 48.1359 329.929 48.2968C325.215 51.0509 322.23 56.0188 322.013 61.4742C322 61.793 322 62.1355 322 62.8206C322 63.9157 322 64.4633 321.973 64.9258C321.503 73.0336 315.034 79.5033 306.926 79.9732C306.463 80 305.916 80 304.82 80H71.9999C56.915 80 49.3725 80 44.6862 75.3137C39.9999 70.6274 39.9999 63.0849 39.9999 48V32Z" fill="#DB9F6A"/>
<path d="M30.8882 47.6533L26.8151 45.4868C23.6374 43.7965 22.0485 42.9514 21.475 41.8574C20.8651 40.6942 20.8651 39.3058 21.475 38.1426C22.0485 37.0486 23.6374 36.2035 26.8151 34.5132L30.8882 32.3467C31.4927 32.0251 31.7955 31.8641 32.0709 31.7031C36.7851 28.9491 39.7695 23.9812 39.9872 18.5258C39.9999 18.207 39.9999 17.8645 39.9999 17.1794C39.9999 16.0843 39.9999 15.5367 40.0267 15.0742C40.4967 6.96637 46.9663 0.496736 55.0741 0.0268073C55.5366 0 56.0842 0 57.1794 0H94.4999C109.585 0 117.127 0 121.814 4.68629C126.5 9.37258 126.5 16.9151 126.5 32V48C126.5 63.0849 126.5 70.6274 121.814 75.3137C117.127 80 109.585 80 94.4999 80H57.1794C56.0842 80 55.5366 80 55.0741 79.9732C46.9663 79.5033 40.4967 73.0336 40.0267 64.9258C39.9999 64.4633 39.9999 63.9157 39.9999 62.8206C39.9999 62.1355 39.9999 61.793 39.9872 61.4742C39.7695 56.0188 36.7851 51.0509 32.0709 48.2968C31.7954 48.1359 31.493 47.975 30.8882 47.6533Z" fill="#DB9F6A"/>
<path d="M261.5 0C258.7 57.6 209.333 77.3333 185 80H308V0H261.5Z" fill="url(#paint0_linear_8_1598)" fill-opacity="0.2"/>
<path d="M131.5 0C128.7 57.6 79.3333 77.3333 55 80L178 80V0L131.5 0Z" fill="url(#paint1_linear_8_1598)" fill-opacity="0.2"/>
<path d="M353.086 34.4142C353.867 33.6332 355.133 33.6332 355.914 34.4142L360.586 39.0858C361.367 39.8668 361.367 41.1332 360.586 41.9142L355.914 46.5858C355.133 47.3668 353.867 47.3668 353.086 46.5858L348.414 41.9142C347.633 41.1332 347.633 39.8668 348.414 39.0858L353.086 34.4142Z" fill="#DB9F6A"/>
<path d="M6.08579 34.4142C6.86683 33.6332 8.13317 33.6332 8.91421 34.4142L13.5858 39.0858C14.3668 39.8668 14.3668 41.1332 13.5858 41.9142L8.91421 46.5858C8.13317 47.3668 6.86683 47.3668 6.08579 46.5858L1.41421 41.9142C0.633165 41.1332 0.633165 39.8668 1.41421 39.0858L6.08579 34.4142Z" fill="#DB9F6A"/>
<defs>
<linearGradient id="paint0_linear_8_1598" x1="220" y1="24" x2="261.5" y2="60" gradientUnits="userSpaceOnUse">
<stop stop-color="#342416"/>
<stop offset="1" stop-color="#342416" stop-opacity="0"/>
</linearGradient>
<linearGradient id="paint1_linear_8_1598" x1="90" y1="24" x2="131.5" y2="60" gradientUnits="userSpaceOnUse">
<stop stop-color="#342416"/>
<stop offset="1" stop-color="#342416" stop-opacity="0"/>
</linearGradient>
</defs>
</svg>
