<svg width="161" height="48" viewBox="0 0 161 48" fill="none" xmlns="http://www.w3.org/2000/svg">
<path d="M22.25 2C10.0997 2 0.25 11.8497 0.25 24C0.25 36.1503 10.0997 46 22.25 46C33.151 46 42.2002 38.0716 43.9458 27.6667H43.7879C42.1598 33.9925 36.4174 38.6667 29.5833 38.6667C21.4832 38.6667 14.9167 32.1002 14.9167 24C14.9167 15.8998 21.4832 9.33333 29.5833 9.33333C36.4174 9.33333 42.1598 14.0075 43.7879 20.3333H43.9458C42.2002 9.92838 33.151 2 22.25 2Z" fill="#FFF4EB"/>
<path d="M0.25 24C0.25 11.8497 10.0997 2 22.25 2C33.151 2 42.2002 9.92838 43.9458 20.3333H29.1213C27.4931 14.0075 21.7507 9.33333 14.9167 9.33333C6.81649 9.33333 0.25 15.8998 0.25 24Z" fill="#FFF4EB"/>
<path d="M0.25 24C0.25 36.1503 10.0997 46 22.25 46C33.151 46 42.2002 38.0716 43.9458 27.6667H29.1213C27.4931 33.9925 21.7507 38.6667 14.9167 38.6667C6.81649 38.6667 0.25 32.1002 0.25 24Z" fill="#FFF4EB"/>
<path d="M75.6889 20.5085C75.0625 15.9844 71.5824 13.3594 67.0682 13.3594C61.7486 13.3594 57.7415 17.2372 57.7415 23.8196C57.7415 30.392 61.6988 34.2798 67.0682 34.2798C71.9105 34.2798 75.1221 31.1477 75.6889 27.2599L71.9701 27.2401C71.5028 29.6264 69.554 30.9688 67.1179 30.9688C63.8167 30.9688 61.4503 28.4929 61.4503 23.8196C61.4503 19.2259 63.7969 16.6705 67.1278 16.6705C69.6037 16.6705 71.5426 18.0724 71.9701 20.5085H75.6889Z" fill="#FFF4EB"/>
<path d="M83.3029 34.3097C85.6992 34.3097 87.131 33.1861 87.7873 31.9034H87.9066V34.0014H91.3668V23.7798C91.3668 19.7429 88.0756 18.5298 85.1623 18.5298C81.9506 18.5298 79.4847 19.9616 78.6892 22.7457L82.05 23.223C82.408 22.179 83.4222 21.2841 85.1821 21.2841C86.8526 21.2841 87.7674 22.1392 87.7674 23.6406V23.7003C87.7674 24.7344 86.6836 24.7841 83.989 25.0724C81.0259 25.3906 78.1921 26.2756 78.1921 29.7159C78.1921 32.7188 80.3895 34.3097 83.3029 34.3097ZM84.2375 31.6648C82.7361 31.6648 81.6623 30.9787 81.6623 29.6563C81.6623 28.2741 82.8654 27.6974 84.4762 27.4688C85.4208 27.3395 87.31 27.1009 87.7773 26.723V28.5227C87.7773 30.223 86.4052 31.6648 84.2375 31.6648Z" fill="#FFF4EB"/>
<path d="M102.613 18.7287H99.5998V15.0696H96.0003V18.7287H93.8327V21.5128H96.0003V30.0043C95.9804 32.8778 98.0685 34.2898 100.773 34.2102C101.797 34.1804 102.503 33.9815 102.891 33.8523L102.284 31.0384C102.086 31.0881 101.678 31.1776 101.23 31.1776C100.326 31.1776 99.5998 30.8594 99.5998 29.4077V21.5128H102.613V18.7287Z" fill="#FFF4EB"/>
<path d="M110.018 34.3097C112.414 34.3097 113.846 33.1861 114.502 31.9034H114.621V34.0014H118.082V23.7798C118.082 19.7429 114.79 18.5298 111.877 18.5298C108.665 18.5298 106.2 19.9616 105.404 22.7457L108.765 23.223C109.123 22.179 110.137 21.2841 111.897 21.2841C113.567 21.2841 114.482 22.1392 114.482 23.6406V23.7003C114.482 24.7344 113.398 24.7841 110.704 25.0724C107.741 25.3906 104.907 26.2756 104.907 29.7159C104.907 32.7188 107.104 34.3097 110.018 34.3097ZM110.952 31.6648C109.451 31.6648 108.377 30.9787 108.377 29.6563C108.377 28.2741 109.58 27.6974 111.191 27.4688C112.136 27.3395 114.025 27.1009 114.492 26.723V28.5227C114.492 30.223 113.12 31.6648 110.952 31.6648Z" fill="#FFF4EB"/>
<path d="M125.3 13.6378H121.701V34.0014H125.3V13.6378Z" fill="#FFF4EB"/>
<path d="M135.664 34.2997C140.138 34.2997 142.982 31.1477 142.982 26.4247C142.982 21.6918 140.138 18.5298 135.664 18.5298C131.189 18.5298 128.345 21.6918 128.345 26.4247C128.345 31.1477 131.189 34.2997 135.664 34.2997ZM135.684 31.4162C133.208 31.4162 131.995 29.2088 131.995 26.4148C131.995 23.6207 133.208 21.3835 135.684 21.3835C138.12 21.3835 139.333 23.6207 139.333 26.4148C139.333 29.2088 138.12 31.4162 135.684 31.4162Z" fill="#FFF4EB"/>
<path d="M152.679 40.0469C156.805 40.0469 159.848 38.1577 159.848 34.25V18.7287H156.298V21.2543H156.099C155.553 20.1506 154.409 18.5298 151.714 18.5298C148.185 18.5298 145.41 21.294 145.41 26.3153C145.41 31.2969 148.185 33.7827 151.704 33.7827C154.32 33.7827 155.543 32.3807 156.099 31.2571H156.278V34.1506C156.278 36.3977 154.787 37.3224 152.739 37.3224C150.571 37.3224 149.616 36.2983 149.179 35.4034L145.937 36.1889C146.594 38.3267 148.791 40.0469 152.679 40.0469ZM152.709 30.9588C150.332 30.9588 149.079 29.1094 149.079 26.2955C149.079 23.5213 150.312 21.483 152.709 21.483C155.026 21.483 156.298 23.402 156.298 26.2955C156.298 29.2088 155.006 30.9588 152.709 30.9588Z" fill="#FFF4EB"/>
</svg>
