<svg width="184" height="48" viewBox="0 0 184 48" fill="none" xmlns="http://www.w3.org/2000/svg">
<path d="M16.2144 33.4275C24.8931 33.4275 31.9287 26.3919 31.9287 17.7132C31.9287 16.7296 31.8383 15.7671 31.6654 14.8336C30.7319 14.6607 29.7694 14.5703 28.7858 14.5703C20.1071 14.5703 13.0715 21.6058 13.0715 30.2846C13.0715 31.2682 13.1619 32.2307 13.3348 33.1642C14.2683 33.3371 15.2308 33.4275 16.2144 33.4275Z" fill="#FFF4EB"/>
<path fill-rule="evenodd" clip-rule="evenodd" d="M13.3347 33.1653C6.03118 31.8127 0.5 25.4095 0.5 17.7143C0.5 9.03553 7.53553 2 16.2143 2C23.9095 2 30.3128 7.53118 31.6653 14.8347C30.7318 14.6618 29.7693 14.5714 28.7857 14.5714C20.107 14.5714 13.0714 21.607 13.0714 30.2857C13.0714 31.2693 13.1618 32.2318 13.3347 33.1653Z" fill="#FFF4EB"/>
<path fill-rule="evenodd" clip-rule="evenodd" d="M16.2143 33.4298C24.8931 33.4298 31.9286 26.3943 31.9286 17.7155C31.9286 16.732 31.8382 15.7695 31.6654 14.8359C38.9689 16.1885 44.5 22.5918 44.5 30.287C44.5 38.9657 37.4645 46.0013 28.7858 46.0013C21.0906 46.0013 14.6873 40.4701 13.3347 33.1666C14.2682 33.3395 15.2307 33.4298 16.2143 33.4298Z" fill="#FFF4EB"/>
<path d="M74.7281 28.9032C74.1681 30.7139 73.1881 32.0672 71.7881 32.9632C70.3881 33.8405 68.7548 34.2792 66.8881 34.2792C65.0588 34.2792 63.4721 33.8965 62.1281 33.1312C60.8028 32.3659 59.7761 31.2739 59.0481 29.8552C58.3388 28.4365 57.9841 26.7379 57.9841 24.7592C57.9841 22.7805 58.3481 21.0819 59.0761 19.6632C59.8041 18.2445 60.8308 17.1525 62.1561 16.3872C63.4815 15.6219 65.0401 15.2392 66.8321 15.2392C68.7175 15.2392 70.3321 15.6405 71.6761 16.4432C73.0388 17.2272 73.9721 18.4219 74.4761 20.0272L70.9761 21.5112C70.6588 20.3912 70.1735 19.5979 69.5201 19.1312C68.8668 18.6459 68.0268 18.4032 67.0001 18.4032C65.4695 18.4032 64.2468 18.9539 63.3321 20.0552C62.4361 21.1379 61.9881 22.7059 61.9881 24.7592C61.9881 26.7939 62.4175 28.3619 63.2761 29.4632C64.1348 30.5645 65.3761 31.1152 67.0001 31.1152C68.0081 31.1152 68.8761 30.8445 69.6041 30.3032C70.3508 29.7619 70.8735 28.9405 71.1721 27.8392L74.7281 28.9032Z" fill="#FFF4EB"/>
<path d="M79.5614 17.9832C77.9747 17.9832 77.1814 17.3019 77.1814 15.9392C77.1814 14.5579 77.9747 13.8672 79.5614 13.8672C81.1481 13.8672 81.9414 14.5579 81.9414 15.9392C81.9414 17.3019 81.1481 17.9832 79.5614 17.9832ZM81.4654 19.9992V33.9992H77.6294V19.9992H81.4654Z" fill="#FFF4EB"/>
<path d="M85.5318 33.9992V19.9992H88.8637L89.1157 22.7432C89.4704 21.7912 90.0024 21.0539 90.7117 20.5312C91.4397 19.9899 92.3544 19.7192 93.4557 19.7192C94.1091 19.7192 94.6131 19.8219 94.9677 20.0272L94.5197 23.2472C94.3331 23.1912 94.0997 23.1445 93.8197 23.1072C93.5584 23.0512 93.2131 23.0232 92.7837 23.0232C92.2051 23.0232 91.6544 23.1632 91.1317 23.4432C90.6277 23.7045 90.2077 24.1152 89.8717 24.6752C89.5357 25.2165 89.3678 25.9072 89.3678 26.7472V33.9992H85.5318Z" fill="#FFF4EB"/>
<path d="M103.427 19.7192C105.293 19.7192 106.74 20.1205 107.767 20.9232C108.812 21.7259 109.503 22.6965 109.839 23.8352L106.255 25.1232C105.881 23.4245 104.957 22.5752 103.483 22.5752C102.419 22.5752 101.588 22.9485 100.991 23.6952C100.412 24.4419 100.123 25.5525 100.123 27.0272C100.123 28.5205 100.421 29.6312 101.019 30.3592C101.635 31.0685 102.465 31.4232 103.511 31.4232C105.135 31.4232 106.105 30.5925 106.423 28.9312L109.895 30.0512C109.577 31.3019 108.868 32.3192 107.767 33.1032C106.684 33.8872 105.275 34.2792 103.539 34.2792C102.083 34.2792 100.804 33.9899 99.7028 33.4112C98.6201 32.8325 97.7801 32.0019 97.1828 30.9192C96.5855 29.8365 96.2868 28.5299 96.2868 26.9992C96.2868 25.4685 96.5855 24.1619 97.1828 23.0792C97.7988 21.9965 98.6388 21.1659 99.7028 20.5872C100.785 20.0085 102.027 19.7192 103.427 19.7192Z" fill="#FFF4EB"/>
<path d="M119.259 19.7192C120.659 19.7192 121.901 20.0085 122.983 20.5872C124.066 21.1659 124.906 21.9965 125.503 23.0792C126.119 24.1619 126.427 25.4685 126.427 26.9992C126.427 28.5299 126.119 29.8365 125.503 30.9192C124.906 32.0019 124.066 32.8325 122.983 33.4112C121.901 33.9899 120.659 34.2792 119.259 34.2792C117.841 34.2792 116.59 33.9899 115.507 33.4112C114.443 32.8325 113.603 32.0019 112.987 30.9192C112.39 29.8365 112.091 28.5299 112.091 26.9992C112.091 25.4685 112.39 24.1619 112.987 23.0792C113.603 21.9965 114.443 21.1659 115.507 20.5872C116.59 20.0085 117.841 19.7192 119.259 19.7192ZM119.259 22.5752C118.214 22.5752 117.393 22.9485 116.795 23.6952C116.217 24.4232 115.927 25.5245 115.927 26.9992C115.927 28.4739 116.217 29.5845 116.795 30.3312C117.393 31.0592 118.214 31.4232 119.259 31.4232C120.286 31.4232 121.089 31.0592 121.667 30.3312C122.265 29.5845 122.563 28.4739 122.563 26.9992C122.563 25.5245 122.265 24.4232 121.667 23.6952C121.089 22.9485 120.286 22.5752 119.259 22.5752Z" fill="#FFF4EB"/>
<path d="M136.021 19.7192C137.421 19.7192 138.663 20.0085 139.745 20.5872C140.828 21.1659 141.668 21.9965 142.265 23.0792C142.881 24.1619 143.189 25.4685 143.189 26.9992C143.189 28.5299 142.881 29.8365 142.265 30.9192C141.668 32.0019 140.828 32.8325 139.745 33.4112C138.663 33.9899 137.421 34.2792 136.021 34.2792C134.603 34.2792 133.352 33.9899 132.269 33.4112C131.205 32.8325 130.365 32.0019 129.749 30.9192C129.152 29.8365 128.853 28.5299 128.853 26.9992C128.853 25.4685 129.152 24.1619 129.749 23.0792C130.365 21.9965 131.205 21.1659 132.269 20.5872C133.352 20.0085 134.603 19.7192 136.021 19.7192ZM136.021 22.5752C134.976 22.5752 134.155 22.9485 133.557 23.6952C132.979 24.4232 132.689 25.5245 132.689 26.9992C132.689 28.4739 132.979 29.5845 133.557 30.3312C134.155 31.0592 134.976 31.4232 136.021 31.4232C137.048 31.4232 137.851 31.0592 138.429 30.3312C139.027 29.5845 139.325 28.4739 139.325 26.9992C139.325 25.5245 139.027 24.4232 138.429 23.6952C137.851 22.9485 137.048 22.5752 136.021 22.5752Z" fill="#FFF4EB"/>
<path d="M150.179 13.8672V29.6872C150.179 30.3405 150.291 30.7979 150.515 31.0592C150.739 31.3205 151.112 31.4512 151.635 31.4512C151.952 31.4512 152.214 31.4325 152.419 31.3952C152.624 31.3579 152.886 31.2832 153.203 31.1712L152.867 33.6912C152.55 33.8779 152.148 34.0179 151.663 34.1112C151.196 34.2232 150.73 34.2792 150.263 34.2792C148.9 34.2792 147.902 33.9525 147.267 33.2992C146.651 32.6272 146.343 31.5632 146.343 30.1072V13.8672H150.179Z" fill="#FFF4EB"/>
<path d="M161.836 34.2792C159.634 34.2792 157.87 33.6445 156.544 32.3752C155.219 31.0872 154.556 29.2952 154.556 26.9992C154.556 25.4685 154.855 24.1619 155.452 23.0792C156.05 21.9965 156.88 21.1659 157.944 20.5872C159.027 20.0085 160.259 19.7192 161.64 19.7192C163.059 19.7192 164.263 20.0085 165.252 20.5872C166.242 21.1472 166.998 21.9219 167.52 22.9112C168.043 23.8819 168.304 24.9925 168.304 26.2432C168.304 26.6165 168.295 26.9712 168.276 27.3072C168.258 27.6432 168.23 27.9419 168.192 28.2032H158.308C158.458 29.2859 158.831 30.0979 159.428 30.6392C160.044 31.1619 160.838 31.4232 161.808 31.4232C162.63 31.4232 163.292 31.2645 163.796 30.9472C164.3 30.6299 164.692 30.1912 164.972 29.6312L168.024 30.8072C167.576 31.9085 166.792 32.7672 165.672 33.3832C164.552 33.9805 163.274 34.2792 161.836 34.2792ZM161.612 22.5472C159.802 22.5472 158.71 23.5459 158.336 25.5432H164.636C164.524 24.5725 164.207 23.8352 163.684 23.3312C163.18 22.8085 162.49 22.5472 161.612 22.5472Z" fill="#FFF4EB"/>
<path d="M177.155 34.2792C175.736 34.2792 174.439 34.0272 173.263 33.5232C172.106 33.0192 171.163 32.3099 170.435 31.3952L172.647 29.1552C173.095 29.8272 173.692 30.3779 174.439 30.8072C175.186 31.2365 176.072 31.4512 177.099 31.4512C177.827 31.4512 178.406 31.3485 178.835 31.1432C179.283 30.9192 179.507 30.5739 179.507 30.1072C179.507 29.8085 179.404 29.5565 179.199 29.3512C178.994 29.1272 178.583 28.9499 177.967 28.8192L175.503 28.3152C173.879 27.9792 172.722 27.4752 172.031 26.8032C171.359 26.1125 171.023 25.2259 171.023 24.1432C171.023 23.3779 171.247 22.6592 171.695 21.9872C172.162 21.3152 172.852 20.7739 173.767 20.3632C174.682 19.9339 175.82 19.7192 177.183 19.7192C180.02 19.7192 182.055 20.5872 183.287 22.3232L180.991 24.5632C180.581 23.9099 180.039 23.4152 179.367 23.0792C178.714 22.7245 178.023 22.5472 177.295 22.5472C175.652 22.5472 174.831 23.0045 174.831 23.9192C174.831 24.2179 174.962 24.4792 175.223 24.7032C175.484 24.9085 175.96 25.0859 176.651 25.2352L179.507 25.8232C180.888 26.1032 181.878 26.5792 182.475 27.2512C183.072 27.9045 183.371 28.6979 183.371 29.6312C183.371 30.9752 182.83 32.0859 181.747 32.9632C180.683 33.8405 179.152 34.2792 177.155 34.2792Z" fill="#FFF4EB"/>
</svg>
