<svg width="129" height="32" viewBox="0 0 129 32" fill="none" xmlns="http://www.w3.org/2000/svg">
<path d="M22.3832 16.0012C20.035 18.6488 16.6225 20.3149 12.8244 20.3149C9.0263 20.3149 5.61383 18.6488 3.26562 16.0012C5.61383 13.3537 9.0263 11.6875 12.8244 11.6875C16.6225 11.6875 20.035 13.3537 22.3832 16.0012Z" fill="white"/>
<path fill-rule="evenodd" clip-rule="evenodd" d="M0 24.6287C0 17.4815 5.7416 11.6875 12.8242 11.6875C9.02612 11.6875 5.61368 13.3537 3.26548 16.0012C5.61368 18.6488 9.02615 20.3149 12.8243 20.3149C16.6224 20.3149 20.0348 18.6488 22.383 16.0012C24.4137 18.2908 25.6485 21.3142 25.6485 24.6287V29.5176C25.6485 30.1529 25.1381 30.6679 24.5085 30.6679H1.13993C0.510365 30.6679 0 30.1529 0 29.5176V24.6287ZM22.383 16.0012C22.383 16.0012 22.383 16.0012 22.383 16.0012V16.0012Z" fill="white"/>
<path fill-rule="evenodd" clip-rule="evenodd" d="M8.01402 19.3752C6.18289 18.627 4.56197 17.4644 3.26548 16.0026C5.61368 13.3551 9.02615 11.6889 12.8243 11.6889C16.6224 11.6889 20.0348 13.3551 22.383 16.0026C22.383 16.0026 22.383 16.0026 22.383 16.0026C24.4137 13.7131 25.6485 10.6896 25.6485 7.37515V2.48627C25.6485 1.85096 25.1381 1.33594 24.5085 1.33594L1.13993 1.33594C0.510366 1.33594 4.78577e-07 1.85096 4.23538e-07 2.48626L0 7.37515C-8.5186e-07 12.8058 3.3148 17.4551 8.01402 19.3752Z" fill="white"/>
<path d="M45.6796 9.63556V22.6649H43.0899V17.1209H37.559V22.6649H34.9692V9.63556H37.559V14.9929H43.0899V9.63556H45.6796Z" fill="white"/>
<path d="M52.779 22.8329C51.7925 22.8329 50.9046 22.6151 50.1153 22.1796C49.3261 21.7316 48.7033 21.1031 48.247 20.2942C47.8031 19.4853 47.5811 18.552 47.5811 17.4942C47.5811 16.4365 47.8092 15.5031 48.2655 14.6942C48.7341 13.8853 49.3692 13.2631 50.1708 12.8276C50.9724 12.3796 51.8665 12.1556 52.853 12.1556C53.8396 12.1556 54.7337 12.3796 55.5352 12.8276C56.3368 13.2631 56.9657 13.8853 57.422 14.6942C57.8906 15.5031 58.125 16.4365 58.125 17.4942C58.125 18.552 57.8845 19.4853 57.4035 20.2942C56.9349 21.1031 56.2937 21.7316 55.4797 22.1796C54.6782 22.6151 53.7779 22.8329 52.779 22.8329ZM52.779 20.5556C53.2477 20.5556 53.6854 20.4436 54.0924 20.2196C54.5117 19.9831 54.8446 19.6347 55.0913 19.1742C55.3379 18.7138 55.4612 18.1538 55.4612 17.4942C55.4612 16.5111 55.2023 15.7582 54.6843 15.2356C54.1787 14.7005 53.556 14.4329 52.816 14.4329C52.0761 14.4329 51.4534 14.7005 50.9477 15.2356C50.4545 15.7582 50.2078 16.5111 50.2078 17.4942C50.2078 18.4773 50.4483 19.2365 50.9292 19.7716C51.4225 20.2942 52.0391 20.5556 52.779 20.5556Z" fill="white"/>
<path d="M69.6991 12.3236V22.6649H67.0908V21.3582C66.7579 21.8062 66.3201 22.1609 65.7775 22.4222C65.2472 22.6711 64.6676 22.7956 64.0387 22.7956C63.2371 22.7956 62.528 22.6276 61.9114 22.2916C61.2948 21.9431 60.8077 21.4391 60.4501 20.7796C60.1048 20.1076 59.9321 19.3111 59.9321 18.3902V12.3236H62.5218V18.0169C62.5218 18.8382 62.7253 19.4729 63.1323 19.9209C63.5392 20.3565 64.0942 20.5742 64.7971 20.5742C65.5124 20.5742 66.0735 20.3565 66.4804 19.9209C66.8874 19.4729 67.0908 18.8382 67.0908 18.0169V12.3236H69.6991Z" fill="white"/>
<path d="M74.844 13.9289C75.1769 13.3813 75.6085 12.952 76.1388 12.6409C76.6814 12.3298 77.298 12.1742 77.9886 12.1742V14.9182H77.3042C76.4903 14.9182 75.8737 15.1111 75.4544 15.4969C75.0474 15.8827 74.844 16.5547 74.844 17.5129V22.6649H72.2542V12.3236H74.844V13.9289Z" fill="white"/>
<path d="M83.747 12.1556C84.5116 12.1556 85.1837 12.3111 85.7633 12.6222C86.3429 12.9209 86.7991 13.3129 87.1321 13.7982V12.3236H89.7403V22.7396C89.7403 23.6978 89.5492 24.5502 89.1669 25.2969C88.7846 26.056 88.2112 26.6533 87.4466 27.0889C86.682 27.5369 85.7571 27.7609 84.6719 27.7609C83.2167 27.7609 82.0205 27.4187 81.0833 26.7342C80.1584 26.0498 79.6343 25.1165 79.5109 23.9342H82.0822C82.2178 24.4071 82.5076 24.7805 82.9516 25.0542C83.4078 25.3405 83.9566 25.4836 84.5979 25.4836C85.3501 25.4836 85.9606 25.2533 86.4292 24.7929C86.8978 24.3449 87.1321 23.6605 87.1321 22.7396V21.1342C86.7991 21.6196 86.3367 22.024 85.7448 22.3476C85.1652 22.6711 84.4992 22.8329 83.747 22.8329C82.8837 22.8329 82.0945 22.6089 81.3792 22.1609C80.664 21.7129 80.0967 21.0845 79.6774 20.2756C79.2705 19.4542 79.067 18.5147 79.067 17.4569C79.067 16.4116 79.2705 15.4845 79.6774 14.6756C80.0967 13.8667 80.6578 13.2445 81.3607 12.8089C82.076 12.3733 82.8714 12.1556 83.747 12.1556ZM87.1321 17.4942C87.1321 16.8596 87.0088 16.3182 86.7621 15.8702C86.5155 15.4098 86.1825 15.0613 85.7633 14.8249C85.344 14.576 84.8938 14.4516 84.4129 14.4516C83.932 14.4516 83.488 14.5698 83.081 14.8062C82.6741 15.0427 82.3411 15.3911 82.0822 15.8516C81.8355 16.2996 81.7122 16.8347 81.7122 17.4569C81.7122 18.0791 81.8355 18.6267 82.0822 19.0996C82.3411 19.56 82.6741 19.9147 83.081 20.1636C83.5003 20.4125 83.9443 20.5369 84.4129 20.5369C84.8938 20.5369 85.344 20.4187 85.7633 20.1822C86.1825 19.9333 86.5155 19.5849 86.7621 19.1369C87.0088 18.6765 87.1321 18.1289 87.1321 17.4942Z" fill="white"/>
<path d="M94.8593 8.85156V22.6649H92.2696V8.85156H94.8593Z" fill="white"/>
<path d="M96.7521 17.4569C96.7521 16.4116 96.9555 15.4845 97.3625 14.6756C97.7818 13.8667 98.3429 13.2445 99.0458 12.8089C99.7611 12.3733 100.556 12.1556 101.432 12.1556C102.197 12.1556 102.863 12.3111 103.43 12.6222C104.009 12.9333 104.472 13.3253 104.817 13.7982V12.3236H107.425V22.6649H104.817V21.1529C104.484 21.6382 104.022 22.0427 103.43 22.3662C102.85 22.6773 102.178 22.8329 101.414 22.8329C100.55 22.8329 99.7611 22.6089 99.0458 22.1609C98.3429 21.7129 97.7818 21.0845 97.3625 20.2756C96.9555 19.4542 96.7521 18.5147 96.7521 17.4569ZM104.817 17.4942C104.817 16.8596 104.694 16.3182 104.447 15.8702C104.201 15.4098 103.868 15.0613 103.448 14.8249C103.029 14.576 102.579 14.4516 102.098 14.4516C101.617 14.4516 101.173 14.5698 100.766 14.8062C100.359 15.0427 100.026 15.3911 99.7672 15.8516C99.5206 16.2996 99.3973 16.8347 99.3973 17.4569C99.3973 18.0791 99.5206 18.6267 99.7672 19.0996C100.026 19.56 100.359 19.9147 100.766 20.1636C101.185 20.4125 101.629 20.5369 102.098 20.5369C102.579 20.5369 103.029 20.4187 103.448 20.1822C103.868 19.9333 104.201 19.5849 104.447 19.1369C104.694 18.6765 104.817 18.1289 104.817 17.4942Z" fill="white"/>
<path d="M113.876 22.8329C113.038 22.8329 112.285 22.6836 111.62 22.3849C110.954 22.0738 110.423 21.6569 110.029 21.1342C109.646 20.6116 109.437 20.0329 109.4 19.3982H112.008C112.057 19.7965 112.248 20.1262 112.581 20.3876C112.927 20.6489 113.352 20.7796 113.858 20.7796C114.351 20.7796 114.733 20.68 115.005 20.4809C115.288 20.2818 115.43 20.0267 115.43 19.7156C115.43 19.3796 115.257 19.1307 114.912 18.9689C114.579 18.7947 114.043 18.608 113.303 18.4089C112.538 18.2222 111.909 18.0293 111.416 17.8302C110.935 17.6311 110.516 17.3262 110.158 16.9156C109.813 16.5049 109.64 15.9511 109.64 15.2542C109.64 14.6818 109.801 14.1591 110.121 13.6862C110.454 13.2133 110.923 12.84 111.527 12.5662C112.144 12.2925 112.865 12.1556 113.691 12.1556C114.912 12.1556 115.886 12.4667 116.614 13.0889C117.342 13.6987 117.742 14.5262 117.816 15.5716H115.338C115.301 15.1609 115.128 14.8373 114.82 14.6009C114.524 14.352 114.123 14.2276 113.617 14.2276C113.149 14.2276 112.785 14.3147 112.526 14.4889C112.279 14.6631 112.156 14.9058 112.156 15.2169C112.156 15.5653 112.329 15.8329 112.674 16.0196C113.019 16.1938 113.556 16.3742 114.283 16.5609C115.023 16.7476 115.634 16.9405 116.115 17.1396C116.595 17.3387 117.009 17.6498 117.354 18.0729C117.712 18.4836 117.897 19.0311 117.909 19.7156C117.909 20.3129 117.742 20.848 117.409 21.3209C117.089 21.7938 116.62 22.1671 116.004 22.4409C115.399 22.7022 114.69 22.8329 113.876 22.8329Z" fill="white"/>
<path d="M123.956 22.8329C123.118 22.8329 122.365 22.6836 121.699 22.3849C121.034 22.0738 120.503 21.6569 120.109 21.1342C119.726 20.6116 119.517 20.0329 119.48 19.3982H122.088C122.137 19.7965 122.328 20.1262 122.661 20.3876C123.007 20.6489 123.432 20.7796 123.938 20.7796C124.431 20.7796 124.813 20.68 125.085 20.4809C125.368 20.2818 125.51 20.0267 125.51 19.7156C125.51 19.3796 125.337 19.1307 124.992 18.9689C124.659 18.7947 124.123 18.608 123.383 18.4089C122.618 18.2222 121.989 18.0293 121.496 17.8302C121.015 17.6311 120.596 17.3262 120.238 16.9156C119.893 16.5049 119.72 15.9511 119.72 15.2542C119.72 14.6818 119.881 14.1591 120.201 13.6862C120.534 13.2133 121.003 12.84 121.607 12.5662C122.224 12.2925 122.945 12.1556 123.771 12.1556C124.992 12.1556 125.966 12.4667 126.694 13.0889C127.422 13.6987 127.822 14.5262 127.896 15.5716H125.418C125.381 15.1609 125.208 14.8373 124.9 14.6009C124.604 14.352 124.203 14.2276 123.697 14.2276C123.229 14.2276 122.865 14.3147 122.606 14.4889C122.359 14.6631 122.236 14.9058 122.236 15.2169C122.236 15.5653 122.409 15.8329 122.754 16.0196C123.099 16.1938 123.636 16.3742 124.363 16.5609C125.103 16.7476 125.714 16.9405 126.194 17.1396C126.675 17.3387 127.089 17.6498 127.434 18.0729C127.791 18.4836 127.976 19.0311 127.989 19.7156C127.989 20.3129 127.822 20.848 127.489 21.3209C127.169 21.7938 126.7 22.1671 126.084 22.4409C125.479 22.7022 124.77 22.8329 123.956 22.8329Z" fill="white"/>
</svg>
