<svg width="187" height="48" viewBox="0 0 187 48" fill="none" xmlns="http://www.w3.org/2000/svg">
<path fill-rule="evenodd" clip-rule="evenodd" d="M22 36.4667C28.8851 36.4667 34.4667 30.8851 34.4667 24C34.4667 17.1148 28.8851 11.5333 22 11.5333C15.1148 11.5333 9.53333 17.1148 9.53333 24C9.53333 30.8851 15.1148 36.4667 22 36.4667ZM22 46C34.1503 46 44 36.1503 44 24C44 11.8497 34.1503 2 22 2C9.84973 2 0 11.8497 0 24C0 36.1503 9.84973 46 22 46Z" fill="#FFF4EB"/>
<path d="M22.2515 24.4843C24.5426 22.1932 28.2572 22.1932 30.5483 24.4843L41.9562 35.8923C44.2473 38.1834 44.2473 41.8979 41.9562 44.189V44.189C39.6652 46.4801 35.9506 46.4801 33.6595 44.189L22.2515 32.781C19.9605 30.4899 19.9605 26.7754 22.2515 24.4843V24.4843Z" fill="#FFF4EB"/>
<path d="M25.4548 35.9786L32.7002 43.224C36.1754 41.2858 39.0707 38.4328 41.0603 34.9907L33.8743 27.8047C32.6121 31.7441 29.4439 34.8305 25.4548 35.9786Z" fill="#FFF4EB"/>
<path d="M79.52 36.0969C78.8854 36.8809 78.1107 37.4783 77.196 37.8889C76.3 38.2996 75.3107 38.5049 74.228 38.5049C72.772 38.5049 71.456 38.1876 70.28 37.5529C69.104 36.9369 67.76 35.8356 66.248 34.2489C64.4747 34.0249 62.888 33.4556 61.488 32.5409C60.1067 31.6263 59.024 30.4503 58.24 29.0129C57.4747 27.5569 57.092 25.9516 57.092 24.1969C57.092 22.2743 57.5494 20.5476 58.464 19.0169C59.3974 17.4676 60.676 16.2543 62.3 15.3769C63.9427 14.4996 65.7814 14.0609 67.816 14.0609C69.8507 14.0609 71.68 14.4996 73.304 15.3769C74.928 16.2543 76.2067 17.4676 77.14 19.0169C78.0734 20.5476 78.54 22.2743 78.54 24.1969C78.54 26.4743 77.896 28.4716 76.608 30.1889C75.3387 31.9063 73.6494 33.1009 71.54 33.7729C72.0067 34.2583 72.4547 34.6036 72.884 34.8089C73.332 35.0329 73.808 35.1449 74.312 35.1449C75.5254 35.1449 76.5894 34.6596 77.504 33.6889L79.52 36.0969ZM61.684 24.1969C61.684 25.4103 61.9454 26.4929 62.468 27.4449C63.0094 28.3969 63.7467 29.1436 64.68 29.6849C65.6134 30.2076 66.6587 30.4689 67.816 30.4689C68.9734 30.4689 70.0187 30.2076 70.952 29.6849C71.8854 29.1436 72.6134 28.3969 73.136 27.4449C73.6774 26.4929 73.948 25.4103 73.948 24.1969C73.948 22.9836 73.6774 21.9009 73.136 20.9489C72.6134 19.9969 71.8854 19.2596 70.952 18.7369C70.0187 18.1956 68.9734 17.9249 67.816 17.9249C66.6587 17.9249 65.6134 18.1956 64.68 18.7369C63.7467 19.2596 63.0094 19.9969 62.468 20.9489C61.9454 21.9009 61.684 22.9836 61.684 24.1969Z" fill="#FFF4EB"/>
<path d="M96.817 18.9329V33.9969H92.673V32.2049C92.0944 32.8583 91.4037 33.3623 90.601 33.7169C89.7984 34.0529 88.9304 34.2209 87.997 34.2209C86.0184 34.2209 84.4504 33.6516 83.293 32.5129C82.1357 31.3743 81.557 29.6849 81.557 27.4449V18.9329H85.925V26.8009C85.925 29.2276 86.9424 30.4409 88.977 30.4409C90.0224 30.4409 90.8624 30.1049 91.497 29.4329C92.1317 28.7423 92.449 27.7249 92.449 26.3809V18.9329H96.817Z" fill="#FFF4EB"/>
<path d="M108.032 34.2209C106.445 34.2209 105.017 33.8943 103.748 33.2409C102.497 32.5689 101.517 31.6449 100.808 30.4689C100.098 29.2929 99.7437 27.9583 99.7437 26.4649C99.7437 24.9716 100.098 23.6369 100.808 22.4609C101.517 21.2849 102.497 20.3703 103.748 19.7169C105.017 19.0449 106.445 18.7089 108.032 18.7089C109.618 18.7089 111.037 19.0449 112.288 19.7169C113.538 20.3703 114.518 21.2849 115.228 22.4609C115.937 23.6369 116.292 24.9716 116.292 26.4649C116.292 27.9583 115.937 29.2929 115.228 30.4689C114.518 31.6449 113.538 32.5689 112.288 33.2409C111.037 33.8943 109.618 34.2209 108.032 34.2209ZM108.032 30.6369C109.152 30.6369 110.066 30.2636 110.776 29.5169C111.504 28.7516 111.868 27.7343 111.868 26.4649C111.868 25.1956 111.504 24.1876 110.776 23.4409C110.066 22.6756 109.152 22.2929 108.032 22.2929C106.912 22.2929 105.988 22.6756 105.26 23.4409C104.532 24.1876 104.168 25.1956 104.168 26.4649C104.168 27.7343 104.532 28.7516 105.26 29.5169C105.988 30.2636 106.912 30.6369 108.032 30.6369Z" fill="#FFF4EB"/>
<path d="M128.927 33.2689C128.498 33.5863 127.966 33.8289 127.331 33.9969C126.715 34.1463 126.062 34.2209 125.371 34.2209C123.579 34.2209 122.189 33.7636 121.199 32.8489C120.229 31.9343 119.743 30.5903 119.743 28.8169V22.6289H117.419V19.2689H119.743V15.6009H124.111V19.2689H127.863V22.6289H124.111V28.7609C124.111 29.3956 124.27 29.8903 124.587 30.2449C124.923 30.5809 125.39 30.7489 125.987 30.7489C126.678 30.7489 127.266 30.5623 127.751 30.1889L128.927 33.2689Z" fill="#FFF4EB"/>
<path d="M131.379 18.9329H135.747V33.9969H131.379V18.9329ZM133.563 16.8329C132.761 16.8329 132.107 16.5996 131.603 16.1329C131.099 15.6663 130.847 15.0876 130.847 14.3969C130.847 13.7063 131.099 13.1276 131.603 12.6609C132.107 12.1943 132.761 11.9609 133.563 11.9609C134.366 11.9609 135.019 12.1849 135.523 12.6329C136.027 13.0809 136.279 13.6409 136.279 14.3129C136.279 15.0409 136.027 15.6476 135.523 16.1329C135.019 16.5996 134.366 16.8329 133.563 16.8329Z" fill="#FFF4EB"/>
<path d="M154.557 26.5209C154.557 26.5769 154.529 26.9689 154.473 27.6969H143.077C143.283 28.6303 143.768 29.3676 144.533 29.9089C145.299 30.4503 146.251 30.7209 147.389 30.7209C148.173 30.7209 148.864 30.6089 149.461 30.3849C150.077 30.1423 150.647 29.7689 151.169 29.2649L153.493 31.7849C152.075 33.4089 150.003 34.2209 147.277 34.2209C145.579 34.2209 144.076 33.8943 142.769 33.2409C141.463 32.5689 140.455 31.6449 139.745 30.4689C139.036 29.2929 138.681 27.9583 138.681 26.4649C138.681 24.9903 139.027 23.6649 139.717 22.4889C140.427 21.2943 141.388 20.3703 142.601 19.7169C143.833 19.0449 145.205 18.7089 146.717 18.7089C148.192 18.7089 149.527 19.0263 150.721 19.6609C151.916 20.2956 152.849 21.2103 153.521 22.4049C154.212 23.5809 154.557 24.9529 154.557 26.5209ZM146.745 22.0129C145.756 22.0129 144.925 22.2929 144.253 22.8529C143.581 23.4129 143.171 24.1783 143.021 25.1489H150.441C150.292 24.1969 149.881 23.4409 149.209 22.8809C148.537 22.3023 147.716 22.0129 146.745 22.0129Z" fill="#FFF4EB"/>
<path d="M166.621 18.7089C168.488 18.7089 169.991 19.2689 171.129 20.3889C172.287 21.5089 172.865 23.1703 172.865 25.3729V33.9969H168.497V26.0449C168.497 24.8503 168.236 23.9636 167.713 23.3849C167.191 22.7876 166.435 22.4889 165.445 22.4889C164.344 22.4889 163.467 22.8343 162.813 23.5249C162.16 24.1969 161.833 25.2049 161.833 26.5489V33.9969H157.465V18.9329H161.637V20.6969C162.216 20.0623 162.935 19.5769 163.793 19.2409C164.652 18.8863 165.595 18.7089 166.621 18.7089Z" fill="#FFF4EB"/>
<path d="M186.541 33.2689C186.111 33.5863 185.579 33.8289 184.945 33.9969C184.329 34.1463 183.675 34.2209 182.985 34.2209C181.193 34.2209 179.802 33.7636 178.813 32.8489C177.842 31.9343 177.357 30.5903 177.357 28.8169V22.6289H175.033V19.2689H177.357V15.6009H181.725V19.2689H185.477V22.6289H181.725V28.7609C181.725 29.3956 181.883 29.8903 182.201 30.2449C182.537 30.5809 183.003 30.7489 183.601 30.7489C184.291 30.7489 184.879 30.5623 185.365 30.1889L186.541 33.2689Z" fill="#FFF4EB"/>
</svg>
