<svg width="170" height="48" viewBox="0 0 170 48" fill="none" xmlns="http://www.w3.org/2000/svg">
<rect x="0.75" y="19.2031" width="9.59998" height="9.59999" fill="#FFF4EB"/>
<rect x="29.55" y="28.7969" width="9.6" height="9.59999" transform="rotate(180 29.55 28.7969)" fill="#FFF4EB"/>
<path d="M10.3501 19.2015L19.9501 9.60156V19.2015L10.3501 28.8015V19.2015Z" fill="#FFF4EB"/>
<path d="M19.95 28.7984L10.35 38.3984L10.35 28.7984L19.95 19.1985L19.95 28.7984Z" fill="#FFF4EB"/>
<path d="M0.75 19.2L19.95 0V9.59999L10.35 19.2H0.75Z" fill="#FFF4EB"/>
<path d="M29.55 28.8L10.3501 48L10.3501 38.4L19.9501 28.8L29.55 28.8Z" fill="#FFF4EB"/>
<path d="M50.458 34.2788C48.946 34.2788 47.4806 34.0641 46.062 33.6348C44.662 33.2055 43.5513 32.6361 42.73 31.9268L43.99 29.0988C44.7926 29.7335 45.7726 30.2561 46.93 30.6668C48.106 31.0588 49.282 31.2548 50.458 31.2548C51.914 31.2548 52.9966 31.0215 53.706 30.5548C54.434 30.0881 54.798 29.4721 54.798 28.7068C54.798 28.1468 54.5926 27.6895 54.182 27.3348C53.79 26.9615 53.286 26.6721 52.67 26.4668C52.054 26.2615 51.214 26.0281 50.15 25.7668C48.6566 25.4121 47.4433 25.0575 46.51 24.7028C45.5953 24.3481 44.802 23.7975 44.13 23.0508C43.4766 22.2855 43.15 21.2588 43.15 19.9708C43.15 18.8881 43.4393 17.9081 44.018 17.0308C44.6153 16.1348 45.502 15.4255 46.678 14.9028C47.8726 14.3801 49.3286 14.1188 51.046 14.1188C52.2406 14.1188 53.4166 14.2681 54.574 14.5668C55.7313 14.8655 56.73 15.2948 57.57 15.8548L56.422 18.6828C55.5633 18.1788 54.6673 17.7961 53.734 17.5348C52.8006 17.2735 51.8953 17.1428 51.018 17.1428C49.5806 17.1428 48.5073 17.3855 47.798 17.8708C47.1073 18.3561 46.762 19.0001 46.762 19.8028C46.762 20.3628 46.958 20.8201 47.35 21.1748C47.7606 21.5295 48.274 21.8095 48.89 22.0148C49.506 22.2201 50.346 22.4535 51.41 22.7148C52.866 23.0508 54.0606 23.4055 54.994 23.7788C55.9273 24.1335 56.7206 24.6841 57.374 25.4308C58.046 26.1775 58.382 27.1855 58.382 28.4548C58.382 29.5375 58.0833 30.5175 57.486 31.3948C56.9073 32.2721 56.0206 32.9721 54.826 33.4948C53.6313 34.0175 52.1753 34.2788 50.458 34.2788Z" fill="#FFF4EB"/>
<path d="M61.6553 19.0468H65.1553V33.9988H61.6553V19.0468ZM63.4193 16.5828C62.7847 16.5828 62.2527 16.3868 61.8233 15.9948C61.394 15.5841 61.1793 15.0801 61.1793 14.4828C61.1793 13.8855 61.394 13.3908 61.8233 12.9988C62.2527 12.5881 62.7847 12.3828 63.4193 12.3828C64.054 12.3828 64.586 12.5788 65.0153 12.9708C65.4447 13.3441 65.6593 13.8201 65.6593 14.3988C65.6593 15.0148 65.4447 15.5375 65.0153 15.9668C64.6047 16.3775 64.0727 16.5828 63.4193 16.5828Z" fill="#FFF4EB"/>
<path d="M74.3691 34.1948C73.1558 34.1948 71.9704 34.0361 70.8131 33.7188C69.6558 33.4015 68.7318 33.0002 68.0411 32.5148L69.3851 29.8548C70.0571 30.3028 70.8598 30.6668 71.7931 30.9468C72.7451 31.2081 73.6784 31.3388 74.5931 31.3388C76.6838 31.3388 77.7291 30.7881 77.7291 29.6868C77.7291 29.1641 77.4584 28.8001 76.9171 28.5948C76.3944 28.3895 75.5451 28.1935 74.3691 28.0068C73.1371 27.8201 72.1291 27.6055 71.3451 27.3628C70.5798 27.1201 69.9078 26.7001 69.3291 26.1028C68.7691 25.4868 68.4891 24.6375 68.4891 23.5548C68.4891 22.1361 69.0771 21.0068 70.2531 20.1668C71.4478 19.3081 73.0531 18.8788 75.0691 18.8788C76.0958 18.8788 77.1224 19.0001 78.1491 19.2428C79.1758 19.4668 80.0158 19.7748 80.6691 20.1668L79.3251 22.8268C78.0558 22.0801 76.6278 21.7068 75.0411 21.7068C74.0144 21.7068 73.2304 21.8655 72.6891 22.1828C72.1664 22.4815 71.9051 22.8828 71.9051 23.3868C71.9051 23.9468 72.1851 24.3481 72.7451 24.5908C73.3238 24.8148 74.2104 25.0295 75.4051 25.2348C76.5998 25.4215 77.5798 25.6361 78.3451 25.8788C79.1104 26.1215 79.7638 26.5321 80.3051 27.1108C80.8651 27.6895 81.1451 28.5108 81.1451 29.5748C81.1451 30.9748 80.5384 32.0948 79.3251 32.9348C78.1118 33.7748 76.4598 34.1948 74.3691 34.1948Z" fill="#FFF4EB"/>
<path d="M97.8858 19.0468L90.8858 35.2028C90.2325 36.8268 89.4391 37.9655 88.5058 38.6188C87.5725 39.2908 86.4431 39.6268 85.1178 39.6268C84.3711 39.6268 83.6338 39.5055 82.9058 39.2628C82.1778 39.0202 81.5805 38.6842 81.1138 38.2548L82.5138 35.6788C82.8498 35.9962 83.2418 36.2482 83.6898 36.4348C84.1565 36.6215 84.6231 36.7148 85.0898 36.7148C85.7058 36.7148 86.2098 36.5561 86.6018 36.2388C87.0125 35.9215 87.3858 35.3895 87.7218 34.6428L87.9738 34.0548L81.4498 19.0468H85.0898L89.7938 30.1068L94.5258 19.0468H97.8858Z" fill="#FFF4EB"/>
<path d="M108.361 18.8788C109.817 18.8788 111.115 19.1961 112.253 19.8308C113.411 20.4655 114.316 21.3615 114.969 22.5188C115.623 23.6761 115.949 25.0108 115.949 26.5228C115.949 28.0348 115.623 29.3788 114.969 30.5548C114.316 31.7121 113.411 32.6081 112.253 33.2428C111.115 33.8775 109.817 34.1948 108.361 34.1948C106.345 34.1948 104.749 33.5228 103.573 32.1788V39.4308H100.073V19.0468H103.405V21.0068C103.984 20.2975 104.693 19.7655 105.533 19.4108C106.392 19.0561 107.335 18.8788 108.361 18.8788ZM107.969 31.1988C109.257 31.1988 110.312 30.7695 111.133 29.9108C111.973 29.0521 112.393 27.9228 112.393 26.5228C112.393 25.1228 111.973 23.9935 111.133 23.1348C110.312 22.2761 109.257 21.8468 107.969 21.8468C107.129 21.8468 106.373 22.0428 105.701 22.4348C105.029 22.8081 104.497 23.3495 104.105 24.0588C103.713 24.7681 103.517 25.5895 103.517 26.5228C103.517 27.4561 103.713 28.2775 104.105 28.9868C104.497 29.6961 105.029 30.2468 105.701 30.6388C106.373 31.0121 107.129 31.1988 107.969 31.1988Z" fill="#FFF4EB"/>
<path d="M127.753 18.8788C129.638 18.8788 131.15 19.4295 132.289 20.5308C133.427 21.6321 133.997 23.2655 133.997 25.4308V33.9988H130.497V25.8788C130.497 24.5721 130.189 23.5921 129.573 22.9388C128.957 22.2668 128.079 21.9308 126.941 21.9308C125.653 21.9308 124.635 22.3228 123.889 23.1068C123.142 23.8721 122.769 24.9828 122.769 26.4388V33.9988H119.269V13.2228H122.769V20.7828C123.347 20.1668 124.057 19.7001 124.897 19.3828C125.755 19.0468 126.707 18.8788 127.753 18.8788Z" fill="#FFF4EB"/>
<path d="M152.913 19.0468V33.9988H149.581V32.0948C149.021 32.7668 148.321 33.2895 147.481 33.6628C146.641 34.0175 145.735 34.1948 144.765 34.1948C142.767 34.1948 141.19 33.6442 140.033 32.5428C138.894 31.4228 138.325 29.7708 138.325 27.5868V19.0468H141.825V27.1108C141.825 28.4548 142.123 29.4628 142.721 30.1348C143.337 30.7881 144.205 31.1148 145.325 31.1148C146.575 31.1148 147.565 30.7321 148.293 29.9668C149.039 29.1828 149.413 28.0628 149.413 26.6068V19.0468H152.913Z" fill="#FFF4EB"/>
<path d="M162.115 34.1948C160.902 34.1948 159.716 34.0361 158.559 33.7188C157.402 33.4015 156.478 33.0002 155.787 32.5148L157.131 29.8548C157.803 30.3028 158.606 30.6668 159.539 30.9468C160.491 31.2081 161.424 31.3388 162.339 31.3388C164.43 31.3388 165.475 30.7881 165.475 29.6868C165.475 29.1641 165.204 28.8001 164.663 28.5948C164.14 28.3895 163.291 28.1935 162.115 28.0068C160.883 27.8201 159.875 27.6055 159.091 27.3628C158.326 27.1201 157.654 26.7001 157.075 26.1028C156.515 25.4868 156.235 24.6375 156.235 23.5548C156.235 22.1361 156.823 21.0068 157.999 20.1668C159.194 19.3081 160.799 18.8788 162.815 18.8788C163.842 18.8788 164.868 19.0001 165.895 19.2428C166.922 19.4668 167.762 19.7748 168.415 20.1668L167.071 22.8268C165.802 22.0801 164.374 21.7068 162.787 21.7068C161.76 21.7068 160.976 21.8655 160.435 22.1828C159.912 22.4815 159.651 22.8828 159.651 23.3868C159.651 23.9468 159.931 24.3481 160.491 24.5908C161.07 24.8148 161.956 25.0295 163.151 25.2348C164.346 25.4215 165.326 25.6361 166.091 25.8788C166.856 26.1215 167.51 26.5321 168.051 27.1108C168.611 27.6895 168.891 28.5108 168.891 29.5748C168.891 30.9748 168.284 32.0948 167.071 32.9348C165.858 33.7748 164.206 34.1948 162.115 34.1948Z" fill="#FFF4EB"/>
</svg>
