<svg width="146" height="48" viewBox="0 0 146 48" fill="none" xmlns="http://www.w3.org/2000/svg">
<path d="M13.2775 22.3212C14.0998 19.2529 17.2537 16.099 20.322 15.2768L39.4509 10.1504C42.5192 9.32815 44.3399 11.1489 43.5177 14.2172L38.3913 33.3462C37.569 36.4144 34.4151 39.5683 31.3469 40.3906L12.2179 45.517C9.14963 46.3392 7.32888 44.5185 8.15115 41.4502L13.2775 22.3212Z" fill="#FFF4EB"/>
<path d="M5.60882 14.6493C6.43108 11.5811 9.58498 8.42717 12.6533 7.60491L31.7822 2.47854C34.8505 1.65628 36.6713 3.47702 35.849 6.54529L30.7226 25.6743C29.9004 28.7425 26.7465 31.8964 23.6782 32.7187L4.5492 37.8451C1.48093 38.6673 -0.339816 36.8466 0.482448 33.7783L5.60882 14.6493Z" fill="#FFF4EB"/>
<path d="M61.2921 31.4231H67.8721V33.9991H58.1001V14.5391H61.2921V31.4231Z" fill="#FFF4EB"/>
<path d="M69.4775 26.2151C69.4775 24.6657 69.7948 23.2937 70.4295 22.0991C71.0828 20.9044 71.9602 19.9804 73.0615 19.3271C74.1815 18.6551 75.4135 18.3191 76.7575 18.3191C77.9708 18.3191 79.0255 18.5617 79.9215 19.0471C80.8362 19.5137 81.5642 20.1017 82.1055 20.8111V18.5711H85.3255V33.9991H82.1055V31.7031C81.5642 32.4311 80.8268 33.0377 79.8935 33.5231C78.9602 34.0084 77.8962 34.2511 76.7015 34.2511C75.3762 34.2511 74.1628 33.9151 73.0615 33.2431C71.9602 32.5524 71.0828 31.6004 70.4295 30.3871C69.7948 29.1551 69.4775 27.7644 69.4775 26.2151ZM82.1055 26.2711C82.1055 25.2071 81.8815 24.2831 81.4335 23.4991C81.0042 22.7151 80.4348 22.1177 79.7255 21.7071C79.0162 21.2964 78.2508 21.0911 77.4295 21.0911C76.6082 21.0911 75.8428 21.2964 75.1335 21.7071C74.4242 22.0991 73.8455 22.6871 73.3975 23.4711C72.9682 24.2364 72.7535 25.1511 72.7535 26.2151C72.7535 27.2791 72.9682 28.2124 73.3975 29.0151C73.8455 29.8177 74.4242 30.4337 75.1335 30.8631C75.8615 31.2737 76.6268 31.4791 77.4295 31.4791C78.2508 31.4791 79.0162 31.2737 79.7255 30.8631C80.4348 30.4524 81.0042 29.8551 81.4335 29.0711C81.8815 28.2684 82.1055 27.3351 82.1055 26.2711Z" fill="#FFF4EB"/>
<path d="M103.406 18.5711L93.9421 41.2511H90.6381L93.7741 33.7471L87.6981 18.5711H91.2541L95.5941 30.3311L100.102 18.5711H103.406Z" fill="#FFF4EB"/>
<path d="M119.955 25.9071C119.955 26.4857 119.918 27.0084 119.843 27.4751H108.055C108.148 28.7071 108.606 29.6964 109.427 30.4431C110.248 31.1897 111.256 31.5631 112.451 31.5631C114.168 31.5631 115.382 30.8444 116.091 29.4071H119.535C119.068 30.8257 118.219 31.9924 116.987 32.9071C115.774 33.8031 114.262 34.2511 112.451 34.2511C110.976 34.2511 109.651 33.9244 108.475 33.2711C107.318 32.5991 106.403 31.6657 105.731 30.4711C105.078 29.2577 104.751 27.8577 104.751 26.2711C104.751 24.6844 105.068 23.2937 105.703 22.0991C106.356 20.8857 107.262 19.9524 108.419 19.2991C109.595 18.6457 110.939 18.3191 112.451 18.3191C113.907 18.3191 115.204 18.6364 116.343 19.2711C117.482 19.9057 118.368 20.8017 119.003 21.9591C119.638 23.0977 119.955 24.4137 119.955 25.9071ZM116.623 24.8991C116.604 23.7231 116.184 22.7804 115.363 22.0711C114.542 21.3617 113.524 21.0071 112.311 21.0071C111.21 21.0071 110.267 21.3617 109.483 22.0711C108.699 22.7617 108.232 23.7044 108.083 24.8991H116.623Z" fill="#FFF4EB"/>
<path d="M126.288 20.8111C126.755 20.0271 127.371 19.4204 128.136 18.9911C128.92 18.5431 129.844 18.3191 130.908 18.3191V21.6231H130.096C128.846 21.6231 127.894 21.9404 127.24 22.5751C126.606 23.2097 126.288 24.3111 126.288 25.8791V33.9991H123.096V18.5711H126.288V20.8111Z" fill="#FFF4EB"/>
<path d="M139.442 34.2511C138.229 34.2511 137.137 34.0364 136.166 33.6071C135.214 33.1591 134.458 32.5617 133.898 31.8151C133.338 31.0497 133.04 30.2004 133.002 29.2671H136.306C136.362 29.9204 136.67 30.4711 137.23 30.9191C137.809 31.3484 138.528 31.5631 139.386 31.5631C140.282 31.5631 140.973 31.3951 141.458 31.0591C141.962 30.7044 142.214 30.2564 142.214 29.7151C142.214 29.1364 141.934 28.7071 141.374 28.4271C140.833 28.1471 139.965 27.8391 138.77 27.5031C137.613 27.1857 136.67 26.8777 135.942 26.5791C135.214 26.2804 134.58 25.8231 134.038 25.2071C133.516 24.5911 133.254 23.7791 133.254 22.7711C133.254 21.9497 133.497 21.2031 133.982 20.5311C134.468 19.8404 135.158 19.2991 136.054 18.9071C136.969 18.5151 138.014 18.3191 139.19 18.3191C140.945 18.3191 142.354 18.7671 143.418 19.6631C144.501 20.5404 145.08 21.7444 145.154 23.2751H141.962C141.906 22.5844 141.626 22.0337 141.122 21.6231C140.618 21.2124 139.937 21.0071 139.078 21.0071C138.238 21.0071 137.594 21.1657 137.146 21.4831C136.698 21.8004 136.474 22.2204 136.474 22.7431C136.474 23.1537 136.624 23.4991 136.922 23.7791C137.221 24.0591 137.585 24.2831 138.014 24.4511C138.444 24.6004 139.078 24.7964 139.918 25.0391C141.038 25.3377 141.953 25.6457 142.662 25.9631C143.39 26.2617 144.016 26.7097 144.538 27.3071C145.061 27.9044 145.332 28.6977 145.35 29.6871C145.35 30.5644 145.108 31.3484 144.622 32.0391C144.137 32.7297 143.446 33.2711 142.55 33.6631C141.673 34.0551 140.637 34.2511 139.442 34.2511Z" fill="#FFF4EB"/>
</svg>
